<svg width="54" height="54" fill="none" xmlns="http://www.w3.org/2000/svg"><path d="M53.91 32.928l.008-.003-8.866-19.344 2.15-1.07-.804-1.612-2.096 1.044-.284-.618a.9.9 0 00-1.636 0l-.253.553A11.577 11.577 0 0037.26 10.8H29.7V9h1.8V7.2h-1.547l.647-2.589a3.71 3.71 0 10-7.2 0l.647 2.59H22.5V9h1.8v1.8h-7.556c-1.683 0-3.346.37-4.873 1.08l-.253-.553a.9.9 0 00-1.636 0l-.284.618-2.096-1.048-.804 1.612 2.15 1.075-8.866 19.34A.88.88 0 000 33.3a6.307 6.307 0 006.3 6.3h9a6.307 6.307 0 006.3-6.3.88.88 0 00-.09-.372L12.62 13.51c1.292-.6 2.7-.91 4.124-.91H24.3v32.928L21.227 48.6H18a4.505 4.505 0 00-4.5 4.5.9.9 0 00.9.9h25.2a.9.9 0 00.9-.9 4.505 4.505 0 00-4.5-4.5h-3.227L29.7 45.528V12.6h7.56c1.425 0 2.832.31 4.125.91l-8.903 19.415a.878.878 0 00-.082.375 6.307 6.307 0 006.3 6.3h9a6.307 6.307 0 006.3-6.3.877.877 0 00-.09-.372zM15.3 37.8h-9a4.507 4.507 0 01-4.41-3.6h17.82a4.507 4.507 0 01-4.41 3.6zm3.998-5.4H2.302l8.268-18.036c.15.04.31.04.46 0L19.298 32.4zm6.196-29.865a1.97 1.97 0 013.012 0 1.9 1.9 0 01.348 1.64L28.097 7.2h-2.194l-.757-3.025a1.9 1.9 0 01.348-1.64zM26.1 10.8V9h1.8v1.8h-1.8zm1.8 1.8V45h-1.8V12.6h1.8zM36 50.4a2.705 2.705 0 012.546 1.8H15.454A2.705 2.705 0 0118 50.4h18zm-5.773-1.8h-6.454l1.8-1.8h2.854l1.8 1.8zm12.74-34.234a.614.614 0 00.456-.019L51.698 32.4H34.702l8.266-18.034zM47.7 37.8h-9a4.507 4.507 0 01-4.41-3.6h17.82a4.507 4.507 0 01-4.41 3.6z" fill="#fff"/></svg>