<svg width="54" height="54" fill="none" xmlns="http://www.w3.org/2000/svg"><path d="M18 0C10.544 0 4.5 6.044 4.5 13.5v9.9a6.307 6.307 0 006.3 6.3h.9v-1.8h-.9a4.505 4.505 0 01-4.5-4.5v-9.9C6.3 7.038 11.538 1.8 18 1.8c6.462 0 11.7 5.238 11.7 11.7v9.9a4.505 4.505 0 01-4.5 4.5h-.9v1.8h.9a6.307 6.307 0 006.3-6.3v-9.9C31.5 6.044 25.456 0 18 0zM7.417 42.416l.658-1.036-1.52-.965-.658 1.037a8.971 8.971 0 00.372 10.155V54h1.8v-2.7a.9.9 0 00-.198-.563 7.17 7.17 0 01-.454-8.32zM49.5 0H37.8a4.505 4.505 0 00-4.5 4.5v9a4.505 4.505 0 004.5 4.5h1.8v3.6a.9.9 0 001.536.636L45.373 18H49.5a4.505 4.505 0 004.5-4.5v-9A4.505 4.505 0 0049.5 0zm2.7 13.5a2.7 2.7 0 01-2.7 2.7H45a.9.9 0 00-.636.264L41.4 19.427V17.1a.9.9 0 00-.9-.9h-2.7a2.7 2.7 0 01-2.7-2.7v-9a2.7 2.7 0 012.7-2.7h11.7a2.7 2.7 0 012.7 2.7v9z" fill="#fff"/><path d="M44.1 4.5h-6.3v1.8h6.3V4.5zm5.4 0h-3.6v1.8h3.6V4.5zm0 3.6H37.8v1.8h11.7V8.1zm-5.4 3.6h-6.3v1.8h6.3v-1.8zM30.103 41.452l-.658-1.037-1.52.965.658 1.037a7.168 7.168 0 01-.454 8.32.9.9 0 00-.198.563V54h1.8v-2.393a8.971 8.971 0 00.372-10.155z" fill="#fff"/><path d="M53.1 30.6H45a6.3 6.3 0 00-6.287 6.044L36 41.527V37.8a6.307 6.307 0 00-6.3-6.3h-3.29l-.024-.019-.016.019H24.3a1.8 1.8 0 01-1.8-1.8v-2.118A9 9 0 0027 19.8v-7.2a9.02 9.02 0 00-1.08-4.271.9.9 0 00-1.17-.387L9.517 15.109a.9.9 0 00-.517.815V19.8a9 9 0 004.5 7.782V29.7a1.8 1.8 0 01-1.8 1.8H6.3A6.307 6.307 0 000 37.8V54h1.8V37.8a4.505 4.505 0 014.5-4.5h2.864l8.104 11.324a.9.9 0 00.72.376H18a.9.9 0 00.72-.36l8.55-11.34h2.43a4.505 4.505 0 014.5 4.5V45a.9.9 0 001.687.437l4.242-7.637h5.16L36.514 54h2.047l8.779-16.2h.36a6.307 6.307 0 006.3-6.3.9.9 0 00-.9-.9zM10.8 19.8v-3.305l13.897-6.54A7.2 7.2 0 0125.2 12.6v7.2a7.2 7.2 0 01-14.4 0zm7.219 22.78l-2.777-3.88h5.702l-2.925 3.88zm4.287-5.68H13.95l-2.577-3.6h.327a3.6 3.6 0 003.6-3.6v-1.315a8.993 8.993 0 005.4 0V29.7a3.6 3.6 0 003.6 3.6h.72l-2.714 3.6zM47.7 36h-7.11A4.507 4.507 0 0145 32.4h7.11A4.507 4.507 0 0147.7 36z" fill="#fff"/></svg>