<svg width="54" height="54" fill="none" xmlns="http://www.w3.org/2000/svg"><path d="M11.84 16.463a2.617 2.617 0 00-2.779 2.41 2.602 2.602 0 002.411 2.78c.062 0 .125.006.186.006a2.601 2.601 0 00.182-5.196zm.612 2.648a.802.802 0 01-1.6-.113.805.805 0 01.803-.741h.055a.801.801 0 01.742.854z" fill="#fff"/><path d="M53.1 19.8a.9.9 0 00.9-.9v-7.703a2.7 2.7 0 00-1.846-2.557l-3.977-1.33-6.319-6.058A4.481 4.481 0 0038.744 0H21.17a4.493 4.493 0 00-2.989 1.137l-6.883 6.12-7.535 1.26A4.485 4.485 0 000 12.95v5.95a.9.9 0 00.9.9h4.572A6.277 6.277 0 007.3 23.4H.9a.9.9 0 00-.9.9v3.6a.9.9 0 00.9.9h3.362l17.324 9.9-17.324 9.9H.9a.9.9 0 00-.9.9v3.6a.9.9 0 00.9.9h52.2a.9.9 0 00.9-.9v-3.6a.9.9 0 00-.9-.9h-3.361l-17.325-9.9 17.325-9.9H53.1a.9.9 0 00.9-.9v-3.6a.9.9 0 00-.9-.9h-4.6a6.277 6.277 0 001.828-3.6H53.1zm-19.8-18h5.444a2.689 2.689 0 011.868.75l4.85 4.65H33.3V1.8zm-13.926.682A2.7 2.7 0 0121.17 1.8H31.5v5.4H14.067l5.307-4.718zM37.872 19.8a6.277 6.277 0 001.828 3.6H16.1a6.277 6.277 0 001.828-3.6h19.944zm-31.05-4.879a6.316 6.316 0 00-.289.385c-.019.028-.04.053-.058.08-.11.162-.211.33-.305.5-.024.044-.043.09-.066.135a6.052 6.052 0 00-.19.392c-.028.067-.051.135-.077.202-.046.116-.09.231-.13.35-.024.077-.044.156-.067.234-.031.113-.062.227-.09.343-.018.083-.032.167-.047.252-.013.068-.03.136-.04.206H1.8v-3.6h1.8v-1.8H1.832a2.686 2.686 0 012.224-2.314L11.775 9H31.5v9H17.936c-.01-.07-.027-.137-.04-.205a4.42 4.42 0 00-.139-.595c-.022-.078-.041-.158-.067-.235a6.033 6.033 0 00-.128-.35c-.026-.067-.05-.135-.079-.202a6.052 6.052 0 00-.189-.392c-.023-.044-.042-.09-.066-.134a5.925 5.925 0 00-.304-.5c-.02-.03-.042-.056-.063-.084-.09-.13-.18-.259-.285-.382-.041-.051-.09-.099-.131-.15a5.877 5.877 0 00-.257-.281c-.053-.054-.109-.104-.163-.157a6.58 6.58 0 00-.262-.238 8.917 8.917 0 00-.456-.354c-.068-.047-.137-.09-.206-.137-.094-.06-.19-.12-.288-.18a6.344 6.344 0 00-.525-.267c-.076-.034-.152-.068-.23-.1a5.859 5.859 0 00-.325-.119c-.077-.027-.154-.055-.233-.078-.116-.034-.234-.062-.352-.09-.076-.018-.152-.038-.23-.053-.132-.026-.27-.044-.4-.062-.067-.008-.132-.02-.2-.027a6.339 6.339 0 00-1.235.004c-.067.006-.132.018-.198.027-.135.018-.27.035-.402.062-.077.015-.153.035-.228.053a7.491 7.491 0 00-.353.09c-.08.023-.156.051-.233.078-.11.037-.219.076-.326.119-.078.031-.153.066-.23.1a6.344 6.344 0 00-.524.267 10.077 10.077 0 00-.493.316c-.09.066-.185.135-.27.206a4.765 4.765 0 00-.448.387c-.056.052-.111.103-.164.157-.09.09-.173.185-.257.281a1.725 1.725 0 00-.136.146h.001zM7.2 18.9a4.5 4.5 0 119 0 4.5 4.5 0 01-9 0zm15.535 21.217c0 .012.012.024.016.037a4.542 4.542 0 00.392.831c.134.225.287.438.457.636.008.01.013.021.021.03L11.461 48.6H7.889l14.846-8.483zm2.478 2.7a4.435 4.435 0 003.575 0L38.911 48.6H15.088l10.125-5.783zM52.2 50.4v1.8H1.8v-1.8h50.4zm-6.09-1.8h-3.57l-13.28-7.588a.9.9 0 00-.9.005 2.61 2.61 0 01-2.715 0A2.673 2.673 0 0124.3 38.7c0-.08-.01-.158-.032-.235-.005-.02-.017-.04-.024-.06a.885.885 0 00-.066-.156c-.012-.022-.032-.04-.046-.062a.895.895 0 00-.095-.122.934.934 0 00-.08-.063.835.835 0 00-.105-.08L7.889 28.8h3.572l13.28 7.588a.9.9 0 00.9-.005 2.61 2.61 0 012.714 0A2.673 2.673 0 0129.7 38.7c0 .08.01.158.032.235.005.02.017.04.024.06a.888.888 0 00.066.156c.012.022.032.04.046.062.028.043.06.084.095.122a.915.915 0 00.08.063c.033.03.068.056.105.08L46.111 48.6zM15.09 28.8h23.82l-10.124 5.785a4.428 4.428 0 00-3.575 0L15.089 28.8zm16.175 8.483c0-.012-.012-.024-.016-.037a4.533 4.533 0 00-.392-.831 4.513 4.513 0 00-.457-.636c-.008-.01-.013-.021-.021-.03l12.16-6.949h3.572l-14.846 8.483zM52.2 25.2V27H1.8v-1.8h50.4zm-8.1-1.8a4.5 4.5 0 110-9 4.5 4.5 0 010 9zm6.148-5.859a4.42 4.42 0 00-.09-.341c-.023-.078-.042-.158-.068-.235a6.033 6.033 0 00-.128-.35c-.026-.067-.05-.135-.079-.202a6.052 6.052 0 00-.189-.392c-.023-.044-.042-.09-.066-.134a5.925 5.925 0 00-.304-.5c-.02-.03-.042-.056-.063-.084-.09-.13-.18-.259-.285-.382-.041-.051-.09-.099-.131-.15a5.877 5.877 0 00-.257-.281c-.053-.054-.109-.104-.163-.157a6.58 6.58 0 00-.262-.238 8.917 8.917 0 00-.456-.354c-.068-.047-.137-.09-.206-.137-.094-.06-.19-.12-.288-.18a6.344 6.344 0 00-.525-.267c-.076-.034-.152-.068-.23-.1a5.859 5.859 0 00-.325-.119c-.077-.027-.154-.055-.233-.078-.116-.034-.234-.062-.352-.09-.076-.018-.152-.038-.23-.053-.132-.026-.27-.044-.4-.062-.067-.008-.132-.02-.2-.027a6.339 6.339 0 00-1.235.004c-.067.006-.132.018-.198.027-.135.018-.27.035-.402.062-.077.015-.153.035-.228.053a7.491 7.491 0 00-.353.09c-.08.023-.156.051-.233.078-.11.037-.219.076-.326.119-.078.031-.153.066-.23.1a6.344 6.344 0 00-.524.267 10.05 10.05 0 00-.493.316 8.96 8.96 0 00-.27.206 4.765 4.765 0 00-.448.387c-.056.052-.111.103-.164.157-.09.09-.173.185-.257.281-.043.05-.09.098-.131.15a6.316 6.316 0 00-.29.385c-.018.028-.039.053-.058.08-.108.162-.21.329-.304.5-.024.044-.043.09-.067.134a6.052 6.052 0 00-.189.393c-.028.066-.052.135-.078.201a6.71 6.71 0 00-.129.35c-.025.078-.045.156-.067.235a8.583 8.583 0 00-.09.343c-.018.082-.032.167-.048.252-.012.068-.03.135-.04.206H33.3V9h14.254l4.03 1.344a.9.9 0 01.616.853v.503h-1.8v1.8h1.8V18h-1.864c-.01-.07-.027-.137-.04-.205a6.711 6.711 0 00-.048-.254z" fill="#fff"/><path d="M44.24 16.463a2.62 2.62 0 00-2.779 2.41 2.602 2.602 0 002.411 2.78c.062 0 .125.006.186.006a2.601 2.601 0 00.182-5.196zm.615 2.648a.802.802 0 11-.8-.855h.058a.801.801 0 01.742.855zM29.7 10.8h-5.4v1.8h5.4v-1.8zm-1.8 27h-1.8v1.8h1.8v-1.8z" fill="#fff"/></svg>