<svg width="30" height="30" fill="none" xmlns="http://www.w3.org/2000/svg"><path d="M29.695 11.976a14.968 14.968 0 00-4.088-7.584 15.023 15.023 0 00-4.768-3.215 14.975 14.975 0 00-2.816-.874 15.217 15.217 0 00-6.046 0A14.97 14.97 0 006.613 2.56a15.141 15.141 0 00-4.051 4.052A14.93 14.93 0 000 15a14.941 14.941 0 004.393 10.607 14.984 14.984 0 007.584 4.089 15.05 15.05 0 003.023.305l.002-.003V30a14.952 14.952 0 008.82-2.866.585.585 0 10-.69-.948A13.73 13.73 0 0115 28.828a13.741 13.741 0 01-9.778-4.05 13.742 13.742 0 01-4.05-9.779 13.74 13.74 0 014.05-9.778A13.741 13.741 0 0115 1.171a13.74 13.74 0 019.778 4.05A13.741 13.741 0 0128.828 15c0 2.689-.772 5.295-2.232 7.538a.587.587 0 00.982.64A14.942 14.942 0 0030 14.998a15.05 15.05 0 00-.305-3.023z" fill="#000"/><path d="M15 2.928C8.344 2.928 2.93 8.343 2.93 15S8.344 27.07 15 27.07c6.656 0 12.07-5.415 12.07-12.07 0-6.656-5.414-12.072-12.07-12.072zm2.914 17.29a5.965 5.965 0 01-2.914.758 5.965 5.965 0 01-2.914-.757 7.639 7.639 0 00-3.008-4.41 5.945 5.945 0 011.96-5.285c1.269.443 2.598.667 3.962.667 1.364 0 2.693-.224 3.962-.666a5.944 5.944 0 011.96 5.285 7.639 7.639 0 00-3.008 4.409zM6.729 7.912A12.007 12.007 0 009.85 10.04a7.106 7.106 0 00-2 4.96l.002.103a7.573 7.573 0 00-3.165-.69h-.57a10.852 10.852 0 012.61-6.502zm13.42 2.129a12.006 12.006 0 003.122-2.13 10.851 10.851 0 012.612 6.503h-.57a7.58 7.58 0 00-3.166.69l.001-.104a7.107 7.107 0 00-2-4.96zm2.313-2.976A10.795 10.795 0 0115 10.019a10.795 10.795 0 01-7.462-2.955A10.858 10.858 0 0115 4.1c2.884 0 5.51 1.127 7.462 2.964zm-18.345 8.52h.57a6.453 6.453 0 016.446 6.446v3.158C7.2 23.69 4.35 19.979 4.117 15.585zm8.188 9.976v-3.53c0-.14-.004-.277-.012-.414a7.149 7.149 0 005.414 0 7.691 7.691 0 00-.012.414v3.53c-.862.22-1.765.337-2.695.337-.93 0-1.833-.117-2.695-.337zm6.562-.372V22.03a6.453 6.453 0 016.445-6.446h.57c-.233 4.395-3.083 8.106-7.015 9.604zm6.588.32a.586.586 0 100-1.172.586.586 0 000 1.172z" fill="#000"/></svg>