<svg width="26" height="30" fill="none" xmlns="http://www.w3.org/2000/svg"><path d="M24.715 7.74h-.318a8.929 8.929 0 00-.756-1.9l.224-.233c.243-.252.377-.587.378-.945 0-.359-.133-.696-.377-.95l-1.428-1.488a1.249 1.249 0 00-1.819-.002l-.226.235a8.192 8.192 0 00-1.822-.787v-.332C18.571.6 17.995 0 17.286 0h-2.022c-.71 0-1.287.6-1.287 1.338v.332a8.224 8.224 0 00-1.821.787l-.223-.233a1.249 1.249 0 00-1.82-.001L8.682 3.714a1.382 1.382 0 00.001 1.892l.226.235a8.887 8.887 0 00-.756 1.899h-.317c-.708 0-1.285.6-1.285 1.338v2.108c0 .739.577 1.34 1.285 1.34h.318c.178.66.431 1.295.755 1.897l-.226.235a1.38 1.38 0 000 1.893l1.432 1.491a1.251 1.251 0 001.818 0l.224-.235a8.18 8.18 0 001.821.787v.331c0 .738.577 1.339 1.287 1.339h2.023c.708 0 1.284-.6 1.284-1.339v-.33a8.15 8.15 0 001.822-.788l.226.235a1.251 1.251 0 001.818 0l1.428-1.49c.244-.252.378-.588.378-.947 0-.36-.134-.696-.376-.947l-.225-.234a9 9 0 00.755-1.898h.318c.709 0 1.285-.601 1.285-1.34V9.078c0-.738-.577-1.338-1.285-1.338zm.16 3.446c0 .09-.074.168-.16.168h-.756a.568.568 0 00-.549.457 7.778 7.778 0 01-.951 2.392.604.604 0 00.077.727l.535.558c.04.04.046.09.046.117a.17.17 0 01-.047.118l-1.43 1.491a.156.156 0 01-.113.048.155.155 0 01-.112-.048l-.536-.558a.546.546 0 00-.7-.08 7.065 7.065 0 01-2.293.99.581.581 0 00-.44.572v.787c0 .09-.073.167-.16.167h-2.023a.166.166 0 01-.16-.166v-.788a.581.581 0 00-.44-.572 7.099 7.099 0 01-2.295-.991.545.545 0 00-.7.082l-.533.557a.156.156 0 01-.113.048.155.155 0 01-.112-.048l-1.432-1.491a.174.174 0 010-.236l.535-.556a.604.604 0 00.079-.728 7.737 7.737 0 01-.952-2.391.568.568 0 00-.55-.458h-.755c-.086 0-.16-.077-.16-.168V9.078c0-.09.074-.166.16-.166h.756c.263 0 .491-.19.549-.458a7.712 7.712 0 01.951-2.39.604.604 0 00-.077-.728l-.536-.558a.175.175 0 010-.236L10.91 3.05a.154.154 0 01.224.001l.534.557a.546.546 0 00.7.08 7.13 7.13 0 012.295-.99.581.581 0 00.438-.572v-.788c0-.09.074-.166.161-.166h2.023c.087 0 .16.076.16.166v.788c0 .274.182.51.439.571a7.105 7.105 0 012.295.991.546.546 0 00.698-.08l.538-.558a.154.154 0 01.224.001l1.43 1.49a.17.17 0 01.047.12.166.166 0 01-.047.117l-.534.558a.604.604 0 00-.077.727c.447.736.767 1.54.951 2.391a.568.568 0 00.55.457h.755c.086 0 .16.077.16.167v2.108z" fill="#000"/><path d="M14.526 4.201a.59.59 0 00-.373.732.56.56 0 00.703.389c1.714-.548 3.566-.068 4.833 1.252 1.802 1.877 1.879 4.879.233 6.853a4.001 4.001 0 00-1.427-2.054c.3-.452.475-1 .475-1.59 0-1.548-1.21-2.807-2.696-2.807-1.485 0-2.694 1.26-2.694 2.808 0 .59.176 1.137.475 1.589a4 4 0 00-1.428 2.055c-1.088-1.304-1.46-3.102-.97-4.775a.59.59 0 00-.374-.732.56.56 0 00-.702.39c-.647 2.203-.078 4.582 1.484 6.207 1.125 1.172 2.62 1.817 4.21 1.817 1.59 0 3.086-.645 4.21-1.817 2.323-2.418 2.323-6.353 0-8.772-1.562-1.628-3.845-2.22-5.959-1.545zm1.748 3.947c.866 0 1.57.734 1.57 1.636 0 .901-.704 1.634-1.57 1.634-.865 0-1.568-.733-1.568-1.634 0-.902.703-1.636 1.568-1.636zm.001 7.015a4.658 4.658 0 01-2.681-.845 2.834 2.834 0 011.305-2.122 2.597 2.597 0 002.751 0 2.834 2.834 0 011.306 2.122 4.658 4.658 0 01-2.681.845z" fill="#000"/><path d="M12.463 6.746a.55.55 0 00.398-.172l.001-.002a.602.602 0 000-.827.548.548 0 00-.797 0c-.22.23-.22.6 0 .83a.55.55 0 00.398.17zm9.839 13.646l-4.315 2.31a1.987 1.987 0 00-1.453-.639H13.57c-.158 0-.2-.012-.203-.012a1.7 1.7 0 01-.158-.146l-.024-.024c-2.404-2.36-4.436-2.21-6.747-1.26-.371.152-.378.152-.75.169H5.03c-.197-.6-.743-1.034-1.386-1.034h-2.18C.655 19.756 0 20.44 0 21.28v5.961c0 .842.657 1.526 1.463 1.526h2.181c.642 0 1.189-.433 1.385-1.034h1.215c.14 0 .268.048.403.086l5.641 1.572c.248.07.475.139.695.205.725.22 1.335.404 1.97.404.718 0 1.47-.236 2.458-.923l.014-.01 6.955-5.159c.907-.672 1.17-1.885.613-2.82-.547-.925-1.704-1.224-2.69-.696zm-18.32 6.85c0 .191-.155.354-.338.354h-2.18c-.184 0-.338-.163-.338-.355v-5.96c0-.195.151-.353.337-.353h2.181c.187 0 .338.158.338.352v5.961zm19.745-4.288l-6.948 5.154c-1.422.986-2.026.803-3.482.363a38.052 38.052 0 00-.716-.211l-5.643-1.573-.166-.048a1.46 1.46 0 00-.528-.078H5.108v-4.598h.572a.52.52 0 00.025 0l.032-.002c.458-.021.586-.035 1.112-.25 2.018-.83 3.576-.929 5.563 1.022l.024.024c.338.332.547.478 1.133.478h2.965c.5 0 .907.425.907.947 0 .521-.407.946-.907.946H11.73a.575.575 0 00-.562.585c0 .324.252.586.562.586h4.805c1.12 0 2.033-.95 2.033-2.117 0-.154-.017-.304-.047-.448l4.297-2.3c.4-.213.947-.19 1.219.27.24.404.107.941-.31 1.25z" fill="#000"/></svg>