<svg width="34" height="30" fill="none" xmlns="http://www.w3.org/2000/svg"><path d="M17 4.73a.665.665 0 00.664-.667V.667A.665.665 0 0017 0a.665.665 0 00-.664.667v3.396c0 .368.297.666.664.666zm-4.993 1.095a.663.663 0 00.916.208.668.668 0 00.208-.92l-1.77-2.818a.662.662 0 00-.916-.208.668.668 0 00-.207.92l1.77 2.818zm9.072.208a.66.66 0 00.915-.209l1.768-2.818a.668.668 0 00-.208-.92.663.663 0 00-.916.21L20.87 5.114a.668.668 0 00.209.92z" fill="#000"/><path d="M33.786 15.695l-1.154-2.046a.662.662 0 00-.905-.252.668.668 0 00-.25.909l1.153 2.045a.33.33 0 01-.12.443l-1.778.99a.336.336 0 01-.45-.121l-.452-.802-.006-.01-4.67-8.294a.326.326 0 01.118-.44l1.78-.988a.33.33 0 01.449.12l1.04 1.847c.182.32.587.433.906.251a.668.668 0 00.25-.908l-1.04-1.846a1.659 1.659 0 00-2.247-.631l-1.78.989a1.633 1.633 0 00-.784.995 1.65 1.65 0 00.113 1.194l-.981.286c-.418.121-.672.187-.812.187h-.002c-.097 0-.202-.038-.504-.152-.137-.052-.307-.117-.516-.19l-1.738-.61c-.96-.337-1.394-.32-2.022-.262l-2.963.267c-1.35.12-2.212.426-2.687.956l-1.689-.491c.182-.368.221-.785.109-1.185a1.633 1.633 0 00-.783-.995l-1.78-.99a1.66 1.66 0 00-2.248.632L.216 15.695a1.65 1.65 0 00-.153 1.27c.12.429.398.782.783.996l1.78.99a1.657 1.657 0 002.249-.631l.187-.335c.513.227.944.556 1.238.946a2.23 2.23 0 00-.518 1.203 2.231 2.231 0 001.959 2.474 2.226 2.226 0 00.475 1.635c.382.479.92.758 1.485.824a2.23 2.23 0 001.96 2.458 2.227 2.227 0 00.476 1.635 2.227 2.227 0 003.139.35l1.39-1.117a2.32 2.32 0 00.302-.292l.794.637a2.23 2.23 0 003.584-1.32 2.213 2.213 0 00.98.109 2.211 2.211 0 001.497-.826 2.22 2.22 0 00.476-1.634 2.229 2.229 0 001.96-2.459 2.214 2.214 0 001.485-.823c.372-.465.541-1.05.475-1.647a2.23 2.23 0 00-.518-1.207c.293-.39.723-.72 1.236-.946l.188.334a1.656 1.656 0 002.25.63l1.778-.988c.384-.213.663-.567.783-.994a1.657 1.657 0 00-.15-1.271zM3.718 17.663a.336.336 0 01-.45.12l-1.779-.989a.328.328 0 01-.118-.442L6.5 7.248a.324.324 0 01.284-.163.34.34 0 01.165.043l1.78.99a.312.312 0 01.147.19.327.327 0 01-.03.25l-5.127 9.105zm4.846 3.43a.895.895 0 01-.665.192.897.897 0 01-.798-1.001.898.898 0 01.334-.607L9.92 17.68a.905.905 0 011.131 1.415l-.011.01-2.476 1.987zm.688 2.316a.9.9 0 01-.19-.665.904.904 0 01.332-.61l3.582-2.872a.905.905 0 011.463.809.902.902 0 01-.333.608l-3.58 2.872a.905.905 0 01-1.274-.142zm2.568 2.793a.903.903 0 01-.797-1 .902.902 0 01.332-.61l2.478-1.987.01-.007a.905.905 0 011.462.81.898.898 0 01-.333.607l-2.486 1.995a.899.899 0 01-.666.192zm4.35.54a.901.901 0 01-.332.61l-1.39 1.116a.905.905 0 01-1.466-.807.9.9 0 01.333-.609l1.39-1.116.002-.001a.905.905 0 011.463.808zm10.538-5.79a.896.896 0 01-.607.333.894.894 0 01-.666-.192l-1.777-1.425a.662.662 0 00-.934.104.669.669 0 00.105.937l1.776 1.425a.905.905 0 11-1.13 1.416l-1.928-1.544a.662.662 0 00-.933.106.669.669 0 00.105.937l1.926 1.543c.188.15.306.367.333.61a.9.9 0 01-.798 1 .9.9 0 01-.666-.191l-.959-.77-.005-.004-.962-.772a.662.662 0 00-1.006.217.669.669 0 00.177.824l.964.774c.387.314.45.884.14 1.273a.905.905 0 01-1.272.143l-1.095-.877a2.226 2.226 0 00-1.276-2.204c.22-.308.361-.67.405-1.058a2.231 2.231 0 00-1.27-2.279c.22-.308.361-.67.404-1.06a2.233 2.233 0 00-3.092-2.31 2.232 2.232 0 00-3.575-1.27l-1.778 1.428a4.377 4.377 0 00-1.595-1.247l3.657-6.495 1.948.567c.009.104.025.214.054.331.471 1.946 2.256 2.853 4.657 2.367 2.023-.409 2.857.2 4.516 1.413a86.357 86.357 0 013.861 2.945l2.155 1.73c.188.15.305.366.332.608a.9.9 0 01-.191.667zm-.021-2.886l-1.447-1.16a87.417 87.417 0 00-3.377-2.596 66.796 66.796 0 01-.53-.386c-1.72-1.258-2.964-2.166-5.56-1.642-.794.16-2.687.349-3.105-1.375-.059-.243.001-.327.027-.362.088-.124.446-.427 1.844-.551l2.965-.267c.484-.044.726-.066 1.464.192l1.738.61c.193.068.347.127.483.179.837.318 1.059.318 2.158-.002l1.281-.372 3.653 6.486a4.364 4.364 0 00-1.594 1.246z" fill="#000"/><path d="M30.585 12.04a.666.666 0 000-1.334.665.665 0 00-.664.666v.002c0 .368.297.666.664.666z" fill="#000"/></svg>