<svg width="28" height="30" fill="none" xmlns="http://www.w3.org/2000/svg"><path d="M27.739 26.166l-1-2.117a.586.586 0 00-.777-.277.582.582 0 00-.276.78l1.001 2.117c.098.207.148.43.148.659 0 .586-.33 1.121-.841 1.363l-.003.001-.001.002c-.19.089-.39.134-.596.134a1.431 1.431 0 01-1.304-.857l-.703-1.541a.584.584 0 00-.53-.342h-2.313V24.86h1.22a.587.587 0 00.53-.83l-1.777-3.898a.584.584 0 00-.53-.342h-1.193a1.8 1.8 0 00-.505-1.271 1.717 1.717 0 00-1.24-.528c-.454 0-.882.175-1.208.495-.153.124-.527.486-.897 1.304H8.72v-3.026h11.897l.843 2.093a.582.582 0 00.54.366h1.167l.38.805a.582.582 0 00.527.334h1.304a.584.584 0 00.583-.586v-1.213h1.165a.584.584 0 00.582-.586.584.584 0 00-.582-.586H25.96v-1.213a.584.584 0 00-.583-.586h-7.69l5.226-5.382.41.422a.581.581 0 00.833 0l1.652-1.701.002-.002a3.052 3.052 0 00-.002-4.22l-.788-.813 1.354-1.084a.587.587 0 00.054-.868L24.777.243a.58.58 0 00-.88.055l-1.038 1.373-.768-.79A2.865 2.865 0 0020.022 0c-.782 0-1.516.313-2.068.88l-.001.001L16.3 2.583a.588.588 0 000 .819l.429.44-5.593 5.76a.588.588 0 000 .818l1.462 1.505-3.563 3.668H5.808a.584.584 0 00-.583.586v4.198c0 .324.26.586.583.586h8.72c-.289 1.047-.508 2.504-.508 4.511 0 1.002.742 1.786 1.69 1.786.947 0 1.689-.784 1.689-1.786 0-2.778.803-4.262.938-4.49l.018-.021h1.258l1.243 2.726h-.895a.585.585 0 00-.582.586v2.399a.585.585 0 00.583.586h2.522l.547 1.199c.213.467.55.858.976 1.132.417.267.895.409 1.385.409h.003c.375 0 .755-.087 1.098-.25l.008-.004.002-.001a2.62 2.62 0 001.104-1.007 2.723 2.723 0 00.132-2.572zM24.415 1.548l.73.752-.943.755-.52-.536.733-.971zm.027 17.643l-.381-.805a.582.582 0 00-.526-.334h-1.142l-.519-1.287h2.922v2.426h-.354zm-3.184-17.49l3.718 3.828a1.87 1.87 0 01.346 2.081l-6.073-6.253a1.712 1.712 0 012.01.343zm-2.889.428l6.21 6.393-.839.863-6.209-6.393.838-.863zm-.826 2.552L22.1 9.373l-5.177 5.33-4.556-4.692 5.176-5.33zm-4.131 8.082l.838.864-1.91 1.966h-1.676l2.748-2.83zm1.652 1.702l1.096 1.128h-2.191l1.096-1.128zm-7.51 5.326H6.39v-3.026h1.165v3.026zm9.836.507c-.047.07-1.156 1.764-1.156 5.177 0 .304-.18.613-.525.613-.344 0-.524-.309-.524-.614 0-4.733 1.274-5.974 1.38-6.068.035-.022.208-.242.484-.242.153 0 .298.062.407.174.438.441-.047.93-.066.96zm-14.09.121l-1.864.6a.586.586 0 00.355 1.115l1.864-.6A.587.587 0 003.3 20.42zm.355-5.399l-1.864-.599a.587.587 0 00-.355 1.116l1.864.6a.579.579 0 00.732-.38.587.587 0 00-.377-.736z" fill="#000"/><path d="M25.086 22.505a.584.584 0 00.583-.586.584.584 0 00-.583-.586.584.584 0 00-.582.586c0 .324.26.586.582.586zM.582 19h1.864a.584.584 0 00.583-.586v-.005a.584.584 0 00-.583-.586H.582A.584.584 0 000 18.41v.005c0 .324.26.586.582.586z" fill="#000"/></svg>