<svg width="28" height="28" fill="none" xmlns="http://www.w3.org/2000/svg"><path d="M14 0C6.268 0 0 6.268 0 14s6.268 14 14 14 14-6.268 14-14C27.991 6.272 21.728.009 14 0zm0 27.067C6.784 27.067.933 21.217.933 14 .933 6.784 6.783.933 14 .933c7.216 0 13.067 5.85 13.067 13.067-.009 7.213-5.854 13.058-13.067 13.067z" fill="#000"/><path d="M20.135 15.707l-3.96-.7a.466.466 0 00-.495.244l-.96 1.84a7.476 7.476 0 01-3.81-3.811l1.838-.96a.466.466 0 00.244-.495l-.7-3.96a.466.466 0 00-.198-.306A3.268 3.268 0 007 10.267C7.007 16.192 11.808 20.993 17.733 21a3.267 3.267 0 002.707-5.095.465.465 0 00-.305-.198zm-2.402 4.36c-5.41-.006-9.794-4.39-9.8-9.8a2.334 2.334 0 013.478-2.034l.603 3.418-1.913.999a.467.467 0 00-.221.58 8.412 8.412 0 004.89 4.892.467.467 0 00.58-.22l.999-1.914 3.418.604a2.333 2.333 0 01-2.034 3.475z" fill="#000"/></svg>