<svg width="19" height="18" fill="none" xmlns="http://www.w3.org/2000/svg"><path d="M18.03 5.292c-.041-.956-.194-1.614-.414-2.184a4.396 4.396 0 00-1.03-1.596A4.384 4.384 0 0015.007.475C14.44.253 13.792.098 12.845.056 11.89.011 11.587 0 9.166 0c-2.42 0-2.723.01-3.674.053C4.545.095 3.893.25 3.329.47c-.6.229-1.136.58-1.581 1.041-.453.45-.805.995-1.028 1.593C.5 3.678.347 4.332.306 5.288.26 6.252.25 6.558.25 9.002s.01 2.75.052 3.71c.042.956.195 1.613.415 2.183a4.444 4.444 0 001.03 1.597c.446.457.986.812 1.578 1.037.568.221 1.216.376 2.163.418.951.043 1.254.053 3.675.053 2.42 0 2.724-.01 3.675-.053.947-.042 1.598-.197 2.163-.418a4.582 4.582 0 002.608-2.634c.22-.573.373-1.227.415-2.184.042-.96.052-1.265.052-3.71 0-2.443-.003-2.749-.045-3.709zm-1.605 7.35c-.038.878-.184 1.353-.306 1.67a2.972 2.972 0 01-1.693 1.708c-.314.123-.787.271-1.655.31-.94.042-1.222.053-3.601.053s-2.665-.01-3.602-.053c-.87-.039-1.34-.186-1.654-.31a2.74 2.74 0 01-1.024-.671 2.8 2.8 0 01-.665-1.034c-.122-.316-.268-.795-.307-1.67-.042-.95-.052-1.234-.052-3.636s.01-2.69.052-3.636c.039-.88.185-1.354.307-1.67.143-.39.369-.746.669-1.034a2.765 2.765 0 011.024-.672c.313-.123.787-.27 1.654-.31.94-.041 1.223-.052 3.601-.052 2.383 0 2.665.01 3.602.053.87.039 1.34.186 1.654.31a2.74 2.74 0 011.024.67c.296.293.523.644.666 1.035.122.316.268.794.306 1.67.042.95.052 1.234.052 3.636s-.01 2.683-.052 3.632z" fill="#5F5F5F"/><path d="M9.166 4.378c-2.528 0-4.58 2.07-4.58 4.624 0 2.553 2.052 4.624 4.58 4.624 2.53 0 4.58-2.071 4.58-4.624 0-2.553-2.05-4.624-4.58-4.624zm0 7.623c-1.64 0-2.97-1.343-2.97-3 0-1.655 1.33-2.999 2.97-2.999 1.641 0 2.971 1.344 2.971 3s-1.33 3-2.97 3zm5.831-7.806c0 .596-.479 1.08-1.07 1.08-.59 0-1.069-.484-1.069-1.08 0-.596.48-1.08 1.07-1.08.59 0 1.07.484 1.07 1.08z" fill="#5F5F5F"/></svg>