<svg width="339" height="27" fill="none" xmlns="http://www.w3.org/2000/svg"><circle cx="169.5" cy="13.5" r="13.5" fill="#FB4A23"/><path d="M166.226 13.935c.482.137.85.397 1.104.78.283.355.425.793.425 1.313 0 .656-.212 1.19-.637 1.6-.425.41-.948.615-1.571.615-.679 0-1.231-.205-1.656-.615-.396-.438-.594-.971-.594-1.6 0-.328.028-.643.085-.944.085-.328.24-.793.467-1.395l1.783-5.662h2.038l-1.444 5.908zm7.218 0c.481.137.849.397 1.104.78.283.355.425.793.425 1.313 0 .656-.213 1.19-.637 1.6-.425.41-.949.615-1.571.615-.68 0-1.231-.205-1.656-.615-.396-.438-.594-.971-.594-1.6 0-.328.028-.643.084-.944.085-.328.241-.793.468-1.395l1.783-5.662h2.038l-1.444 5.908z" fill="#fff"/><path stroke="#E8E8E8" d="M0 12.5h128m83 0h128"/></svg>