<svg width="70" height="54" fill="none" xmlns="http://www.w3.org/2000/svg"><path d="M57.919 1.397A2.453 2.453 0 0056.603.172a2.476 2.476 0 00-1.804-.004l-5.024 1.96a2.45 2.45 0 00-1.382 1.365 2.416 2.416 0 00.062 1.936l.696 1.46-.556.236c-2.002.415-3.389.36-5.449-.214l-5.02-1.397a7.614 7.614 0 00-4.327.07L28.955 7.1c-.982.307-1.89.81-2.668 1.479-.85-.31-2.474-.708-4.699-.39l.66-1.242a2.418 2.418 0 00.19-1.781 2.435 2.435 0 00-1.088-1.429L16.737.958a2.468 2.468 0 00-3.449.952L.283 26.56a2.404 2.404 0 00-.182 1.82 2.421 2.421 0 001.153 1.427l4.641 2.59a2.453 2.453 0 001.9.212 2.44 2.44 0 001.476-1.2l.716-1.35 2.3 1.898-3.311 4.55a3.817 3.817 0 00-.681 2.86 3.814 3.814 0 001.56 2.496l.401.287a3.874 3.874 0 003.202.605 3.794 3.794 0 001.597 2.818l.402.287a3.873 3.873 0 003.202.605 3.794 3.794 0 001.597 2.817l.402.288a3.875 3.875 0 003.202.605 3.794 3.794 0 001.597 2.817l.402.287a3.903 3.903 0 005.402-.87l1.3-1.786 2.05 1.622a4.456 4.456 0 004.684.677 4.42 4.42 0 001.884-1.58 4.376 4.376 0 00.74-2.333 4.46 4.46 0 002.724.228 4.438 4.438 0 002.34-1.401 4.332 4.332 0 001.077-2.773 4.46 4.46 0 002.722.228 4.438 4.438 0 002.34-1.401 4.332 4.332 0 001.072-2.641 4.472 4.472 0 002.89.425 4.452 4.452 0 002.532-1.449l.058-.066a4.27 4.27 0 001.042-3.117 4.258 4.258 0 00-1.489-2.931l-1.448-1.238a9.792 9.792 0 002.638-2.335l.022.046c.197.417.51.77.902 1.018a2.456 2.456 0 002.291.175l4.89-2.096a2.445 2.445 0 001.32-1.37 2.415 2.415 0 00-.074-1.895L57.918 1.397zM7.652 30.562a.624.624 0 01-.625.327.63.63 0 01-.236-.076l-4.642-2.59a.612.612 0 01-.246-.82l13.005-24.65a.614.614 0 01.386-.309.625.625 0 01.495.067l4.613 2.78a.615.615 0 01.228.81L7.652 30.562zm3.671 10.113l-.402-.287a2.02 2.02 0 01-.821-1.313 2 2 0 01.358-1.504l5.124-7.041a2.06 2.06 0 012.853-.458l.403.287a2.02 2.02 0 01.82 1.312 2 2 0 01-.357 1.504L17.973 35l-.002.002-3.794 5.215a2.061 2.061 0 01-2.853.458zm5.2 3.709l-.401-.288a2.018 2.018 0 01-.821-1.313 2 2 0 01.358-1.504l3.796-5.217a2.061 2.061 0 012.851-.456l.403.288a2.018 2.018 0 01.82 1.313 2 2 0 01-.357 1.504l-3.795 5.214a2.061 2.061 0 01-2.853.458zm5.201 3.71l-.402-.288a2.018 2.018 0 01-.82-1.313 1.998 1.998 0 01.357-1.504l2.707-3.72a2.062 2.062 0 012.853-.458l.403.287a2.017 2.017 0 01.82 1.313 2 2 0 01-.357 1.504l-2.707 3.72a2.06 2.06 0 01-2.853.458zm8.054 3.25a2.061 2.061 0 01-2.854.458l-.402-.287a2.018 2.018 0 01-.82-1.313 2.001 2.001 0 01.357-1.504l1.62-2.225a2.061 2.061 0 012.853-.458l.402.288a2.018 2.018 0 01.82 1.312 2 2 0 01-.357 1.504l-1.619 2.225zm29.113-14.17a2.432 2.432 0 01-.6 1.794l-.058.066a2.631 2.631 0 01-3.683.278l-1.869-1.6-.016-.014-4.92-4.207-.056-.049a.919.919 0 00-1.285.1.904.904 0 00.091 1.276l.078.066 4.907 4.197a2.566 2.566 0 01.885 1.755 2.548 2.548 0 01-.625 1.863 2.622 2.622 0 01-3.67.265l-4.977-4.256a.915.915 0 00-1.012-.128.914.914 0 00-.459.53.902.902 0 00.278.975l3.432 2.935a2.568 2.568 0 01.893 1.757 2.547 2.547 0 01-.625 1.868 2.622 2.622 0 01-3.67.265l-3.432-2.935a.917.917 0 00-1.508.756.904.904 0 00.315.62l1.888 1.614a2.568 2.568 0 01.892 1.758 2.548 2.548 0 01-.624 1.867 2.622 2.622 0 01-3.697.243l-2.305-1.822a3.812 3.812 0 00-.06-2.322A3.84 3.84 0 0032 44.827l-.402-.288a3.874 3.874 0 00-2.257-.72 3.811 3.811 0 00-.054-2.328 3.838 3.838 0 00-1.4-1.868l-.402-.288a3.873 3.873 0 00-2.257-.72 3.81 3.81 0 00-.053-2.329 3.838 3.838 0 00-1.4-1.868l-.402-.288a3.872 3.872 0 00-2.133-.719c.319-.795.36-1.672.117-2.493a3.834 3.834 0 00-1.454-2.037l-.402-.287a3.904 3.904 0 00-5.402.87l-.739 1.018-2.502-2.067 9.624-18.14c2.007-.552 3.53-.42 4.473-.203a7.525 7.525 0 00-.693 1.266l-1.48 3.57c-.377.909-.724 1.84-1.032 2.772l-1.477 4.463a.902.902 0 00.498 1.114l.318.14a7.353 7.353 0 007.042-.535 7.113 7.113 0 002.19-2.26 7.06 7.06 0 001.015-3.218c.064-.316.581-2.56 2.164-2.67l2.133.596a5.119 5.119 0 012.198 1.268L51.046 29.51l.045.04 6.943 5.934a2.454 2.454 0 01.857 1.69zM56.3 31.608l-3.993-3.412-13.19-12.911a6.954 6.954 0 00-2.987-1.722l-2.27-.634a.916.916 0 00-.248-.034h-.004c-1.415.006-2.578.77-3.364 2.212a7.19 7.19 0 00-.716 2.009.969.969 0 00-.011.09 5.258 5.258 0 01-.762 2.462 5.298 5.298 0 01-1.633 1.683 5.564 5.564 0 01-4.845.562l1.212-3.665c.295-.889.625-1.78.986-2.646l1.476-3.562a5.682 5.682 0 011.423-1.991 5.732 5.732 0 012.132-1.215l4.844-1.517a5.784 5.784 0 013.285-.052l5.02 1.396c2.383.664 4.06.722 6.408.224a.919.919 0 00.166-.053l.706-.297 9.578 20.105a7.97 7.97 0 01-3.213 2.968zm11.831-3.944a.614.614 0 01-.335.349l-4.889 2.096a.628.628 0 01-.815-.302l-.635-1.334a.908.908 0 00-.196-.411L50.108 4.652a.609.609 0 01.124-.698.618.618 0 01.211-.136l5.025-1.96a.632.632 0 01.796.312l11.848 25.017a.603.603 0 01.018.476z" fill="#fff"/></svg>