<svg width="54" height="54" fill="none" xmlns="http://www.w3.org/2000/svg"><path d="M33.746 54c-6.203 0-11.249-5.046-11.249-11.249s5.047-11.249 11.249-11.249c1.271 0 2.488.205 3.617.605a1.125 1.125 0 01-.755 2.12 8.516 8.516 0 00-2.862-.475c-4.963 0-8.999 4.036-8.999 9 0 4.962 4.036 8.998 8.999 8.998 4.963 0 8.999-4.036 8.999-8.999 0-1.014-.16-1.975-.475-2.862a1.126 1.126 0 012.12-.756c.4 1.13.604 2.347.604 3.618C44.994 48.954 39.948 54 33.746 54z" fill="#fff"/><path d="M33.746 47.25a4.504 4.504 0 01-4.5-4.499c0-1.199.469-2.33 1.319-3.181a1.126 1.126 0 011.59 1.59 2.246 2.246 0 00-.659 1.591c0 1.24 1.01 2.25 2.25 2.25.598 0 1.163-.234 1.59-.66a1.126 1.126 0 011.591 1.591 4.473 4.473 0 01-3.181 1.319z" fill="#fff"/><path d="M33.746 43.876a1.126 1.126 0 01-.796-1.919l7.874-7.874a1.126 1.126 0 011.59 1.59l-7.874 7.875a1.121 1.121 0 01-.794.328z" fill="#fff"/><path d="M47.244 36.002H41.62a1.125 1.125 0 01-1.125-1.125v-5.625c0-.299.12-.584.329-.796l5.624-5.624a1.113 1.113 0 011.226-.243c.42.173.695.585.695 1.039v4.5h4.5a1.125 1.125 0 01.796 1.92l-5.624 5.625c-.212.21-.498.329-.797.329zm-4.5-2.25h4.034l3.375-3.375h-2.909c-.62 0-1.125-.504-1.125-1.124v-2.91l-3.374 3.375v4.034zm-22.496 2.722a1.13 1.13 0 01-.797-.328l-8.031-8.032a1.124 1.124 0 01-.043-1.546L22.218 14.42c.07-.104.165-.2.27-.284C30.2 5.301 42.185-.197 52.893.006a1.125 1.125 0 011.1 1.1c.12 5.642-1.33 11.66-4.196 17.4a1.115 1.115 0 01-1.507.503 1.122 1.122 0 01-.504-1.507c2.518-5.042 3.877-10.288 3.962-15.25-9.761.172-20.742 5.488-27.655 13.475a.985.985 0 01-.158.148l-10.169 11.4 7.278 7.278a1.126 1.126 0 01-.796 1.921z" fill="#fff"/><path d="M14.716 25.68a.97.97 0 01-.16-.011l-10.77-1.544a1.123 1.123 0 01-.63-1.914c5.34-5.339 12.633-8.358 20.086-8.358a1.125 1.125 0 010 2.25c-6.121 0-12.128 2.211-16.792 6.13l8.425 1.208c.615.09 1.042.657.954 1.274a1.13 1.13 0 01-1.113.965zm23.828-4.603a5.606 5.606 0 01-3.977-1.645 5.635 5.635 0 010-7.955 5.63 5.63 0 017.955 0 5.635 5.635 0 010 7.955 5.605 5.605 0 01-3.977 1.645zm0-8.995c-.863 0-1.73.329-2.386.986a3.384 3.384 0 000 4.774 3.386 3.386 0 004.773 0 3.384 3.384 0 000-4.774 3.38 3.38 0 00-2.386-.986zM1.125 54a1.123 1.123 0 01-1.078-1.447c.37-1.23 3.674-12.106 6.082-14.513a6.96 6.96 0 019.833 0 6.962 6.962 0 010 9.834C13.555 50.28 2.68 53.586 1.45 53.955c-.108.03-.216.045-.324.045zm9.921-15.746a4.699 4.699 0 00-3.327 1.374c-1.298 1.3-3.458 7.108-4.884 11.537 4.428-1.426 10.236-3.586 11.534-4.884a4.71 4.71 0 000-6.653 4.686 4.686 0 00-3.322-1.374z" fill="#fff"/></svg>