<svg width="54" height="54" fill="none" xmlns="http://www.w3.org/2000/svg"><path d="M44.942 7.71a26.326 26.326 0 10-.788 37.987l7.984 7.983a1.09 1.09 0 101.543-1.542l-7.985-7.983a26.325 26.325 0 00-.754-36.443V7.71zM2.182 26.327A24.145 24.145 0 1143.56 43.234a1.078 1.078 0 00-.326.326c-.284.279-.573.55-.868.813v-.616a5.72 5.72 0 00-.2-1.542 6.041 6.041 0 00-4.005-4.127l-6.535-2.119v-2.7a10.053 10.053 0 004.577-6.64l.35-1.204a3.414 3.414 0 002.114-4.006 2.776 2.776 0 00-1.614-1.91v-4.24a10.726 10.726 0 10-21.45 0v4.237a2.775 2.775 0 00-1.617 1.913 3.415 3.415 0 002.113 4.007l.35 1.202a10.056 10.056 0 004.577 6.641v2.7l-6.534 2.119a6.04 6.04 0 00-4.063 4.356 5.68 5.68 0 00-.142 1.313v.616a25.684 25.684 0 01-1.033-.973 23.987 23.987 0 01-7.072-17.073zm27.535 9.753a8.273 8.273 0 01-6.782 0v-1.886c2.192.786 4.59.786 6.782 0v1.886zM15.84 21.873a.864.864 0 01.523-.61 2.264 2.264 0 003.122-1.991l.12-2.62c.552 0 1.317-.017 2.22-.078 5.805 4.909 13.96 4.655 14.31 4.641h.01a.88.88 0 01.668.658 1.505 1.505 0 01-1.197 1.838.954.954 0 00-.773.76l-.485 1.668a.929.929 0 00-.022.09 8.15 8.15 0 01-16.02 0 .93.93 0 00-.021-.09l-.485-1.668a.955.955 0 00-.773-.76 1.498 1.498 0 01-1.197-1.838zm11.24-6.09c.815.83 2.783 2.507 6.025 3.345-2.303-.286-5.585-1.016-8.479-2.86a27.83 27.83 0 002.454-.485zm8.064 1.803c-2.895-.39-4.838-1.565-5.928-2.44a15.072 15.072 0 004.145-2.181.955.955 0 10-1.162-1.515c-4.783 3.668-13.372 3.28-13.458 3.277a.955.955 0 00-1.002.91l-.162 3.547a.344.344 0 01-.065.193V15.27a8.816 8.816 0 1117.631 0l.001 2.316zM12.196 45.91v-2.152a3.842 3.842 0 01.132-1.036 4.139 4.139 0 012.752-2.817l6.809-2.208a10.184 10.184 0 008.875 0l6.808 2.208a4.139 4.139 0 012.792 2.973c.065.29.096.584.093.88v2.152a24.164 24.164 0 01-28.261 0z" fill="#fff"/></svg>