<svg width="20" height="12" fill="none" xmlns="http://www.w3.org/2000/svg"><path d="M19.926 5.757C19.768 5.52 15.983 0 10 0 4.866 0 .29 5.49.098 5.723a.44.44 0 000 .554C.291 6.51 4.866 12 10 12c5.134 0 9.71-5.49 9.902-5.723a.438.438 0 00.024-.52zM10 11.143C5.884 11.143 1.97 7.106.976 6 1.97 4.893 5.878.857 10 .857c4.816 0 8.215 4.031 9.045 5.12-.958 1.07-4.894 5.166-9.045 5.166z" fill="#FB4A23"/><path d="M10 2.571C8.162 2.571 6.667 4.11 6.667 6S8.162 9.429 10 9.429 13.333 7.89 13.333 6 11.838 2.571 10 2.571zm0 6C8.622 8.571 7.5 7.418 7.5 6c0-1.418 1.122-2.571 2.5-2.571S12.5 4.582 12.5 6c0 1.418-1.122 2.571-2.5 2.571z" fill="#FB4A23"/></svg>