<svg width="18" height="11" fill="none" xmlns="http://www.w3.org/2000/svg"><path d="M17.667 9.362c-.048-.075-.344-.683-1.77-1.933-1.493-1.308-1.293-1.095.506-3.357 1.095-1.378 1.533-2.22 1.396-2.58-.13-.342-.936-.251-.936-.251l-2.679.014s-.198-.025-.346.058c-.144.082-.236.271-.236.271s-.425 1.067-.991 1.973c-1.193 1.913-1.671 2.014-1.866 1.895-.454-.276-.34-1.112-.34-1.705 0-1.854.297-2.627-.58-2.827C9.531.854 9.317.81 8.572.802c-.956-.01-1.766.003-2.224.215-.305.14-.54.455-.397.473.178.022.579.102.792.375.275.353.265 1.145.265 1.145s.158 2.183-.37 2.454c-.361.186-.857-.194-1.921-1.93a15.794 15.794 0 01-.957-1.872s-.08-.183-.22-.28c-.172-.12-.413-.157-.413-.157L.58 1.239s-.382.011-.523.168c-.125.14-.01.428-.01.428S2.043 6.238 4.3 8.458c2.071 2.035 4.422 1.901 4.422 1.901h1.066s.322-.033.485-.2c.152-.154.146-.442.146-.442s-.02-1.35.643-1.548c.654-.196 1.494 1.304 2.385 1.881.673.437 1.184.34 1.184.34l2.381-.03s1.246-.073.655-.998z" fill="#5F5F5F"/></svg>