<svg width="54" height="54" viewBox="0 0 54 54" fill="none" xmlns="http://www.w3.org/2000/svg">
<path d="M18 0C10.5442 0 4.5 6.04417 4.5 13.5V23.4C4.50394 26.8777 7.32229 29.6961 10.8 29.7H11.7V27.9H10.8C8.316 27.8971 6.30292 25.884 6.3 23.4V13.5C6.3 7.03822 11.5382 1.8 18 1.8C24.4618 1.8 29.7 7.03822 29.7 13.5V23.4C29.6971 25.884 27.684 27.8971 25.2 27.9H24.3V29.7H25.2C28.6777 29.6961 31.4961 26.8777 31.5 23.4V13.5C31.5 6.04417 25.4558 0 18 0Z" fill="white"/>
<path d="M7.4169 42.4161L8.0748 41.3802L6.5547 40.4154L5.8968 41.4522C3.90701 44.5878 4.05473 48.6252 6.2685 51.6069V54H8.0685V51.3C8.06861 51.0956 7.99909 50.8971 7.8714 50.7375C5.958 48.3455 5.77541 45.0023 7.4169 42.4161Z" fill="white"/>
<path d="M49.5 0H37.8C35.316 0.002925 33.3029 2.016 33.3 4.5V13.5C33.3029 15.984 35.316 17.9971 37.8 18H39.6V21.6C39.5999 21.9639 39.819 22.2922 40.1553 22.4316C40.2645 22.4772 40.3816 22.5003 40.5 22.5C40.7387 22.5 40.9675 22.4051 41.1363 22.2363L45.3726 18H49.5C51.984 17.9971 53.9971 15.984 54 13.5V4.5C53.9971 2.016 51.984 0.002925 49.5 0ZM52.2 13.5C52.2 14.9912 50.9912 16.2 49.5 16.2H45C44.7613 16.2 44.5324 16.2949 44.3637 16.4637L41.4 19.4274V17.1C41.4 16.603 40.997 16.2 40.5 16.2H37.8C36.3088 16.2 35.1 14.9912 35.1 13.5V4.5C35.1 3.00881 36.3088 1.8 37.8 1.8H49.5C50.9912 1.8 52.2 3.00881 52.2 4.5V13.5Z" fill="white"/>
<path d="M44.1 4.5H37.8V6.3H44.1V4.5Z" fill="white"/>
<path d="M49.5 4.5H45.9V6.3H49.5V4.5Z" fill="white"/>
<path d="M49.5 8.1H37.8V9.9H49.5V8.1Z" fill="white"/>
<path d="M44.1 11.7H37.8V13.5H44.1V11.7Z" fill="white"/>
<path d="M30.1032 41.4522L29.4453 40.4154L27.9252 41.3802L28.5831 42.417C30.2247 45.0028 30.0421 48.3459 28.1286 50.7375C28.0009 50.8971 27.9314 51.0956 27.9315 51.3V54H29.7315V51.6069C31.9453 48.6252 32.093 44.5878 30.1032 41.4522Z" fill="white"/>
<path d="M53.1 30.6H45C41.6232 30.6039 38.8501 33.2695 38.7126 36.6435L36 41.5269V37.8C35.9961 34.3223 33.1777 31.5039 29.7 31.5H26.4105L26.3862 31.4811L26.37 31.5H24.3C23.3058 31.5 22.5 30.6942 22.5 29.7V27.5823C25.2809 25.9767 26.9957 23.0111 27 19.8V12.6C26.9986 11.1088 26.6276 9.64125 25.92 8.3286C25.6933 7.911 25.181 7.74146 24.75 7.9416L9.5166 15.1092C9.20115 15.2577 8.99989 15.5751 9 15.9237V19.8C9.00427 23.0111 10.7191 25.9767 13.5 27.5823V29.7C13.5 30.6942 12.6942 31.5 11.7 31.5H6.3C2.82229 31.5039 0.0039375 34.3223 0 37.8V54H1.8V37.8C1.80292 35.316 3.816 33.3029 6.3 33.3H9.1638L17.2683 44.6238C17.4348 44.8566 17.7021 44.9962 17.9883 45H18C18.2833 45 18.55 44.8666 18.72 44.64L27.27 33.3H29.7C32.184 33.3029 34.1971 35.316 34.2 37.8V45C34.2005 45.497 34.6038 45.8997 35.1008 45.8992C35.4273 45.8989 35.728 45.7219 35.8866 45.4365L40.1292 37.8H45.2889L36.5139 54H38.5614L47.34 37.8H47.7C51.1777 37.7961 53.9961 34.9777 54 31.5C54 31.003 53.597 30.6 53.1 30.6ZM10.8 19.8V16.4952L24.6969 9.9558C25.0293 10.7977 25.2 11.6948 25.2 12.6V19.8C25.2 23.7764 21.9764 27 18 27C14.0236 27 10.8 23.7764 10.8 19.8ZM18.0189 42.5808L15.2415 38.7H20.9439L18.0189 42.5808ZM22.3056 36.9H13.95L11.3733 33.3H11.7C13.6882 33.3 15.3 31.6882 15.3 29.7V28.3851C17.0575 28.9383 18.9425 28.9383 20.7 28.3851V29.7C20.7 31.6882 22.3118 33.3 24.3 33.3H25.02L22.3056 36.9ZM47.7 36H40.59C41.0203 33.906 42.8623 32.4024 45 32.4H52.11C51.6797 34.494 49.8377 35.9976 47.7 36Z" fill="white"/>
</svg>
