<svg width="54" height="54" viewBox="0 0 54 54" fill="none" xmlns="http://www.w3.org/2000/svg">
<path d="M53.91 32.9276L53.9181 32.9249L45.0522 13.5805L47.2023 12.5104L46.3977 10.8994L44.3016 11.9434L44.0181 11.3251C43.8109 10.8733 43.2767 10.675 42.8249 10.8821C42.629 10.972 42.4718 11.1291 42.3819 11.3251L42.129 11.8777C40.6035 11.1692 38.942 10.8015 37.26 10.8004H29.7V9.00044H31.5V7.20046H29.9529L30.6 4.61118C31.0968 2.62299 29.8879 0.608474 27.8997 0.111566C25.9115 -0.385229 23.8969 0.823684 23.4 2.81188C23.2524 3.4025 23.2524 4.02045 23.4 4.61107L24.0471 7.20035H22.5V9.00033H24.3V10.8003H16.7445C15.0608 10.8017 13.3976 11.1702 11.871 11.8803L11.6181 11.3277C11.411 10.8759 10.8767 10.6776 10.4249 10.8847C10.229 10.9746 10.0718 11.1317 9.98191 11.3277L9.69841 11.946L7.60231 10.8975L6.79771 12.5103L8.94781 13.5849L0.0819119 32.9249C0.027237 33.0425 -0.000663038 33.1706 1.19616e-05 33.3002C0.00394946 36.7779 2.8223 39.5962 6.30001 39.6001H15.3C18.7777 39.5962 21.5961 36.7779 21.6 33.3002C21.5978 33.1709 21.567 33.0437 21.51 32.9276L12.6198 13.5103C13.9121 12.9105 15.3198 12.6 16.7445 12.6004H24.3V45.5275L21.2274 48.6001H18C15.516 48.603 13.5029 50.616 13.5 53.1C13.5 53.597 13.903 54 14.4 54H39.6C40.097 54 40.5 53.597 40.5 53.1C40.4971 50.616 38.484 48.603 36 48.6001H32.7726L29.7 45.5275V12.6004H37.26C38.6847 12.6 40.0924 12.9105 41.3847 13.5103L32.4819 32.9249C32.4272 33.0425 32.3993 33.1706 32.4 33.3002C32.4039 36.7779 35.2223 39.5962 38.7 39.6001H47.7C51.1777 39.5962 53.9961 36.7779 54 33.3002C53.9979 33.1709 53.9671 33.0437 53.91 32.9276ZM15.3 37.8002H6.30001C4.16229 37.7978 2.32032 36.2941 1.89001 34.2002H19.71C19.2798 36.2941 17.4377 37.7978 15.3 37.8002ZM19.2978 32.4002H2.30221L10.5696 14.3635C10.7206 14.404 10.8794 14.404 11.0304 14.3635L19.2978 32.4002ZM25.4943 2.5349C26.1952 1.70331 27.4375 1.59745 28.2691 2.29832C28.3545 2.37032 28.4337 2.44952 28.5057 2.5349C28.8698 2.99795 28.9983 3.60364 28.854 4.17469L28.0971 7.20046H25.9029L25.146 4.17469C25.0017 3.60364 25.1304 2.99795 25.4943 2.5349ZM26.1 10.8004V9.00044H27.9V10.8004H26.1ZM27.9 12.6004V45.0001H26.1V12.6004H27.9ZM36 50.4C37.1439 50.4014 38.1633 51.1221 38.5461 52.2H15.4539C15.8367 51.1221 16.8561 50.4014 18 50.4H36ZM30.2274 48.6001H23.7726L25.5726 46.8001H28.4274L30.2274 48.6001ZM42.9678 14.3662C43.1164 14.4185 43.2794 14.4118 43.4232 14.3473L51.6978 32.4002H34.7022L42.9678 14.3662ZM47.7 37.8002H38.7C36.5623 37.7978 34.7203 36.2941 34.29 34.2002H52.11C51.6798 36.2941 49.8377 37.7978 47.7 37.8002Z" fill="white"/>
</svg>
