<svg width="54" height="54" viewBox="0 0 54 54" fill="none" xmlns="http://www.w3.org/2000/svg">
<path d="M11.84 16.4628C11.8398 16.4628 11.8396 16.4628 11.8395 16.4628C10.4099 16.3703 9.17157 17.4446 9.0612 18.873C8.95973 20.3063 10.0391 21.5504 11.4723 21.6522C11.5335 21.6522 11.5965 21.6585 11.6577 21.6585C13.021 21.6555 14.1513 20.6017 14.2497 19.242C14.3517 17.8091 13.2729 16.5648 11.84 16.4628ZM12.4524 19.1115C12.4198 19.5523 12.0374 19.8839 11.5965 19.854C11.1553 19.8228 10.8227 19.4402 10.8531 18.999C10.8855 18.5801 11.2348 18.2566 11.655 18.2565C11.6737 18.2565 11.691 18.2565 11.7099 18.2565C12.151 18.2877 12.4833 18.6704 12.4524 19.1115Z" fill="white"/>
<path d="M53.1 19.8C53.597 19.8 54 19.397 54 18.9V11.1969C53.9981 10.0365 53.2549 9.00709 52.1541 8.64L48.177 7.3098L41.8581 1.25191C41.0214 0.446968 39.9051 -0.00179461 38.7441 5.39401e-06H21.1689C20.067 -0.000444606 19.0032 0.404105 18.18 1.13671L11.2968 7.2567L3.76201 8.5167C1.59008 8.8713 -0.00359391 10.7495 6.08682e-06 12.9501V18.9C6.08682e-06 19.397 0.402981 19.8 0.900006 19.8H5.472C5.66821 21.1686 6.3108 22.4341 7.2999 23.4H0.900006C0.402981 23.4 6.08682e-06 23.803 6.08682e-06 24.3V27.9C6.08682e-06 28.397 0.402981 28.8 0.900006 28.8H4.26151L21.5856 38.7L4.26151 48.6H0.900006C0.402981 48.6 6.08682e-06 49.003 6.08682e-06 49.5V53.1C6.08682e-06 53.597 0.402981 54 0.900006 54H53.1C53.597 54 54 53.597 54 53.1V49.5C54 49.003 53.597 48.6 53.1 48.6H49.7385L32.4144 38.7L49.7385 28.8H53.1C53.597 28.8 54 28.397 54 27.9V24.3C54 23.803 53.597 23.4 53.1 23.4H48.5001C49.4892 22.4341 50.1318 21.1686 50.328 19.8H53.1ZM33.3 1.80001H38.7441C39.4406 1.79877 40.1104 2.06787 40.6125 2.55061L45.4617 7.2H33.3V1.80001ZM19.3743 2.4822C19.8687 2.04267 20.5073 1.79989 21.1689 1.80001H31.5V7.2H14.067L19.3743 2.4822ZM37.872 19.8C38.0682 21.1686 38.7108 22.4341 39.6999 23.4H16.1001C17.0892 22.4341 17.7318 21.1686 17.928 19.8H37.872ZM6.822 14.9211C6.7203 15.0453 6.6249 15.1749 6.5331 15.3063C6.5142 15.3342 6.49351 15.3594 6.4746 15.3864C6.36537 15.5484 6.26401 15.7152 6.1704 15.8868C6.1461 15.93 6.1272 15.9768 6.10381 16.0209C6.03721 16.1496 5.9724 16.2792 5.9148 16.4133C5.886 16.4799 5.86261 16.5483 5.83651 16.6149C5.79061 16.731 5.74651 16.8462 5.70781 16.965C5.68261 17.0424 5.66281 17.1207 5.64031 17.199C5.60881 17.3124 5.57821 17.4258 5.5503 17.5419C5.5323 17.6247 5.5179 17.7093 5.5026 17.7939C5.49001 17.8623 5.47291 17.9298 5.46301 18H1.80001V14.4H3.60001V12.6H1.83151C1.97989 11.4216 2.88462 10.4806 4.05631 10.2861L11.7747 9H31.5V18H17.9361C17.9262 17.9307 17.9091 17.8632 17.8965 17.7948C17.8812 17.7093 17.8668 17.6247 17.8479 17.541C17.8227 17.4258 17.7921 17.3124 17.7579 17.1999C17.7354 17.1216 17.7156 17.0424 17.6904 16.965C17.6517 16.8462 17.6076 16.731 17.5617 16.6149C17.5356 16.5483 17.5122 16.4799 17.4834 16.4133C17.4258 16.2792 17.361 16.1496 17.2944 16.0209C17.271 15.9768 17.2521 15.9309 17.2278 15.8868C17.1342 15.7146 17.0328 15.5481 16.9236 15.3873C16.9047 15.3576 16.8822 15.3315 16.8615 15.3027C16.7715 15.1722 16.6815 15.0444 16.5762 14.9211C16.5348 14.8698 16.4862 14.8221 16.4448 14.7717C16.3611 14.6754 16.2774 14.58 16.1883 14.49C16.1352 14.436 16.0794 14.3856 16.0245 14.3334C15.939 14.2524 15.8526 14.1714 15.7626 14.0949C15.7014 14.0436 15.6393 13.995 15.5763 13.9464C15.4863 13.8753 15.3963 13.8069 15.3063 13.7412C15.2388 13.6935 15.1704 13.6512 15.1011 13.6044C15.0066 13.5432 14.9112 13.4847 14.8131 13.4244C14.7402 13.383 14.6673 13.3434 14.5935 13.3047C14.4936 13.2525 14.391 13.2039 14.2884 13.1571C14.2119 13.1229 14.1363 13.0887 14.0589 13.0572C13.9518 13.014 13.8429 12.9753 13.7331 12.9384C13.6557 12.9114 13.5792 12.8835 13.5 12.8601C13.3839 12.8259 13.266 12.798 13.1481 12.7701C13.0716 12.7521 12.996 12.7323 12.9186 12.717C12.7863 12.6909 12.6486 12.6729 12.5172 12.6549C12.4506 12.6468 12.3858 12.6342 12.3183 12.6279C12.114 12.6117 11.9079 12.6 11.7 12.6C11.4921 12.6 11.286 12.6117 11.0835 12.6315C11.016 12.6378 10.9512 12.6504 10.8846 12.6585C10.7496 12.6765 10.6146 12.6945 10.4832 12.7206C10.4058 12.7359 10.3302 12.7557 10.2546 12.7737C10.1358 12.8016 10.0179 12.8304 9.9018 12.8637C9.8226 12.8871 9.7461 12.915 9.6687 12.942C9.5589 12.9789 9.45 13.0176 9.3429 13.0608C9.2655 13.0923 9.18991 13.1265 9.11341 13.1607C9.01081 13.2075 8.9082 13.2561 8.8083 13.3083C8.7345 13.347 8.6616 13.3866 8.58871 13.428C8.4906 13.4838 8.3952 13.5423 8.2998 13.608C8.23141 13.6521 8.163 13.698 8.0955 13.7439C8.0055 13.8096 7.911 13.8789 7.8255 13.95C7.7625 13.9986 7.7004 14.0472 7.6392 14.0985C7.5492 14.175 7.4592 14.256 7.3773 14.337C7.3224 14.3892 7.26661 14.4396 7.21351 14.4936C7.12351 14.5836 7.0407 14.679 6.95701 14.7753C6.90931 14.8221 6.8625 14.8698 6.82111 14.9211H6.822ZM7.20001 18.9C7.20001 16.4148 9.21477 14.4 11.7 14.4C14.1852 14.4 16.2 16.4148 16.2 18.9C16.2 21.3852 14.1852 23.4 11.7 23.4C9.216 23.3971 7.20293 21.384 7.20001 18.9ZM22.7349 40.1166C22.7349 40.1292 22.7466 40.1409 22.7511 40.1535C22.838 40.399 22.9457 40.6366 23.0733 40.8636C23.0958 40.905 23.1192 40.9446 23.1435 40.9851C23.2768 41.21 23.4296 41.4229 23.5998 41.6214C23.6079 41.6304 23.6133 41.6421 23.6214 41.6511L11.4606 48.6H7.8894L22.7349 40.1166ZM25.2126 42.8166C26.3517 43.3184 27.6492 43.3184 28.7883 42.8166L38.9106 48.6H15.0885L25.2126 42.8166ZM52.2 50.4V52.2H1.80001V50.4H52.2ZM46.1106 48.6H42.5394L29.2599 41.0121C28.9805 40.853 28.6374 40.8551 28.3599 41.0175C27.5263 41.525 26.4791 41.525 25.6455 41.0175C24.8142 40.5419 24.3009 39.6578 24.3 38.7C24.3 38.6207 24.2894 38.5416 24.2685 38.4651C24.2631 38.4444 24.2514 38.4255 24.2442 38.4057C24.2273 38.3515 24.2054 38.299 24.1785 38.2491C24.1659 38.2266 24.1461 38.2086 24.1317 38.187C24.1038 38.1436 24.0722 38.1026 24.0372 38.0646C24.0113 38.0424 23.9843 38.0217 23.9562 38.0025C23.9236 37.9728 23.8887 37.9457 23.8518 37.9215L7.8894 28.8H11.4606L24.7401 36.3879C25.0196 36.547 25.3626 36.5449 25.6401 36.3825C26.4737 35.875 27.5209 35.875 28.3545 36.3825C29.1858 36.8582 29.6991 37.7423 29.7 38.7C29.7 38.7793 29.7106 38.8584 29.7315 38.9349C29.7369 38.9556 29.7486 38.9745 29.7558 38.9943C29.7727 39.0485 29.7946 39.1009 29.8215 39.1509C29.8341 39.1734 29.8539 39.1914 29.8683 39.213C29.8962 39.2564 29.9278 39.2974 29.9628 39.3354C29.9887 39.3576 30.0157 39.3784 30.0438 39.3975C30.0764 39.4272 30.1113 39.4543 30.1482 39.4785L46.1106 48.6ZM15.0894 28.8H38.9115L28.7874 34.5852C27.6485 34.0826 26.3507 34.0826 25.2117 34.5852L15.0894 28.8ZM31.2651 37.2834C31.2651 37.2708 31.2534 37.2591 31.2489 37.2465C31.1621 37.001 31.0543 36.7634 30.9267 36.5364C30.9042 36.495 30.8808 36.4554 30.8565 36.4149C30.7232 36.19 30.5704 35.9771 30.4002 35.7786C30.3921 35.7696 30.3867 35.7579 30.3786 35.7489L42.5394 28.8H46.1106L31.2651 37.2834ZM52.2 25.2V27H1.80001V25.2H52.2ZM44.1 23.4C41.6148 23.4 39.6 21.3852 39.6 18.9C39.6 16.4148 41.6148 14.4 44.1 14.4C46.5852 14.4 48.6 16.4148 48.6 18.9C48.5971 21.384 46.5841 23.3971 44.1 23.4ZM50.2479 17.541C50.2227 17.4258 50.1921 17.3124 50.1579 17.1999C50.1354 17.1216 50.1156 17.0424 50.0904 16.965C50.0517 16.8462 50.0076 16.731 49.9617 16.6149C49.9356 16.5483 49.9122 16.4799 49.8834 16.4133C49.8258 16.2792 49.761 16.1496 49.6944 16.0209C49.671 15.9768 49.6521 15.9309 49.6278 15.8868C49.5342 15.7146 49.4328 15.5481 49.3236 15.3873C49.3047 15.3576 49.2822 15.3315 49.2615 15.3027C49.1715 15.1722 49.0815 15.0444 48.9762 14.9211C48.9348 14.8698 48.8862 14.8221 48.8448 14.7717C48.7611 14.6754 48.6774 14.58 48.5883 14.49C48.5352 14.436 48.4794 14.3856 48.4245 14.3334C48.339 14.2524 48.2526 14.1714 48.1626 14.0949C48.1014 14.0436 48.0393 13.995 47.9763 13.9464C47.8863 13.8753 47.7963 13.8069 47.7063 13.7412C47.6388 13.6935 47.5704 13.6512 47.5011 13.6044C47.4066 13.5432 47.3112 13.4847 47.2131 13.4244C47.1402 13.383 47.0673 13.3434 46.9935 13.3047C46.8936 13.2525 46.791 13.2039 46.6884 13.1571C46.6119 13.1229 46.5363 13.0887 46.4589 13.0572C46.3518 13.014 46.2429 12.9753 46.1331 12.9384C46.0557 12.9114 45.9792 12.8835 45.9 12.8601C45.7839 12.8259 45.666 12.798 45.5481 12.7701C45.4716 12.7521 45.396 12.7323 45.3186 12.717C45.1863 12.6909 45.0486 12.6729 44.9172 12.6549C44.8506 12.6468 44.7858 12.6342 44.7183 12.6279C44.514 12.6117 44.3079 12.6 44.1 12.6C43.8921 12.6 43.686 12.6117 43.4835 12.6315C43.416 12.6378 43.3512 12.6504 43.2846 12.6585C43.1496 12.6765 43.0146 12.6945 42.8832 12.7206C42.8058 12.7359 42.7302 12.7557 42.6546 12.7737C42.5358 12.8016 42.4179 12.8304 42.3018 12.8637C42.2226 12.8871 42.1461 12.915 42.0687 12.942C41.9589 12.9789 41.85 13.0176 41.7429 13.0608C41.6655 13.0923 41.5899 13.1265 41.5134 13.1607C41.4108 13.2075 41.3082 13.2561 41.2083 13.3083C41.1345 13.347 41.0616 13.3866 40.9887 13.428C40.8906 13.4838 40.7952 13.5423 40.6998 13.608C40.6314 13.6521 40.563 13.698 40.4955 13.7439C40.4055 13.8096 40.3155 13.8789 40.2255 13.95C40.1625 13.9986 40.1004 14.0472 40.0392 14.0985C39.9492 14.175 39.8592 14.256 39.7773 14.337C39.7224 14.3892 39.6666 14.4396 39.6135 14.4936C39.5235 14.5836 39.4407 14.679 39.357 14.7753C39.3138 14.8257 39.267 14.8734 39.2256 14.9247C39.1239 15.0489 39.0285 15.1785 38.9367 15.3099C38.9178 15.3378 38.8971 15.363 38.8782 15.39C38.7696 15.552 38.6682 15.7188 38.574 15.8904C38.5497 15.9336 38.5308 15.9804 38.5074 16.0245C38.4408 16.1532 38.376 16.2828 38.3184 16.4169C38.2896 16.4835 38.2662 16.5519 38.2401 16.6185C38.1942 16.7346 38.1501 16.8498 38.1114 16.9686C38.0862 17.046 38.0664 17.1243 38.0439 17.2026C38.0124 17.316 37.9818 17.4294 37.9539 17.5455C37.9359 17.6283 37.9215 17.7129 37.9062 17.7975C37.8936 17.8659 37.8765 17.9334 37.8666 18.0036H33.3V9H47.5542L51.5844 10.3437C51.9518 10.4661 52.1997 10.8097 52.2 11.1969V11.7H50.4V13.5H52.2V18H50.3361C50.3262 17.9307 50.3091 17.8632 50.2965 17.7948C50.2812 17.7093 50.2668 17.6247 50.2479 17.541Z" fill="white"/>
<path d="M44.2401 16.4628C44.2398 16.4628 44.2397 16.4628 44.2396 16.4628C42.8104 16.3719 41.573 17.4453 41.4613 18.873C41.3598 20.3063 42.4392 21.5504 43.8724 21.6522C43.9336 21.6522 43.9966 21.6585 44.0578 21.6585C45.4211 21.6555 46.5514 20.6017 46.6498 19.242C46.7517 17.8091 45.6729 16.5648 44.2401 16.4628ZM44.8551 19.1115C44.8234 19.5531 44.4409 19.8861 43.9992 19.8567C43.558 19.8255 43.2254 19.4429 43.2558 19.0017C43.2868 18.5828 43.6349 18.2582 44.055 18.2565C44.0748 18.2565 44.0928 18.2565 44.1126 18.2565C44.5537 18.2877 44.886 18.6704 44.8551 19.1115Z" fill="white"/>
<path d="M29.7 10.8H24.3V12.6H29.7V10.8Z" fill="white"/>
<path d="M27.9 37.8H26.1V39.6H27.9V37.8Z" fill="white"/>
</svg>
