<svg width="12" height="12" viewBox="0 0 12 12" fill="none" xmlns="http://www.w3.org/2000/svg">
<path d="M6.00006 0C2.69162 0 0 2.69151 0 5.99983C0 9.30837 2.69162 12 6.00006 12C9.30843 12 12 9.30831 12 5.99983C12 2.69151 9.30843 0 6.00006 0ZM6.00006 11.1399C3.16589 11.1399 0.860108 8.83406 0.860108 5.99983C0.860108 3.16577 3.16589 0.860092 6.00006 0.860092C8.83417 0.860092 11.1399 3.16577 11.1399 5.99983C11.1399 8.83406 8.83417 11.1399 6.00006 11.1399Z" fill="#FB4A23"/>
<path d="M9.08521 5.89943H6.26554V2.81732C6.26554 2.57982 6.07305 2.38727 5.83549 2.38727C5.59799 2.38727 5.40544 2.57982 5.40544 2.81732V6.32947C5.40544 6.56697 5.59799 6.75952 5.83549 6.75952H9.08521C9.32277 6.75952 9.51526 6.56697 9.51526 6.32947C9.51526 6.09197 9.32271 5.89943 9.08521 5.89943Z" fill="#FB4A23"/>
</svg>
