<svg width="34" height="30" viewBox="0 0 34 30" fill="none" xmlns="http://www.w3.org/2000/svg">
<path d="M16.9997 4.72947C17.3664 4.72947 17.6637 4.43093 17.6637 4.06278V0.666686C17.6637 0.298542 17.3664 0 16.9997 0C16.6329 0 16.3356 0.298475 16.3356 0.666686V4.06278C16.3357 4.43093 16.633 4.72947 16.9997 4.72947Z" fill="black"/>
<path d="M12.0071 5.82463C12.1333 6.02577 12.3489 6.13591 12.5695 6.13591C12.6905 6.13591 12.813 6.10271 12.9229 6.03317C13.2331 5.8369 13.3261 5.42522 13.1306 5.11368L11.3613 2.29527C11.1657 1.98379 10.7556 1.89039 10.4455 2.08673C10.1352 2.283 10.0422 2.69468 10.2377 3.00622L12.0071 5.82463Z" fill="black"/>
<path d="M21.0787 6.03337C21.1886 6.10278 21.311 6.13591 21.4318 6.13591C21.6524 6.13591 21.8682 6.02564 21.9944 5.82437L23.7619 3.00595C23.9573 2.69434 23.8641 2.2828 23.5537 2.08653C23.2432 1.89045 22.8334 1.98406 22.638 2.29553L20.8705 5.11395C20.6751 5.42562 20.7684 5.83717 21.0787 6.03337Z" fill="black"/>
<path d="M33.7859 15.6955L32.6321 13.6491C32.4513 13.3286 32.0461 13.2159 31.7272 13.3974C31.408 13.5788 31.2957 13.9855 31.4764 14.3059L32.6297 16.3514C32.6875 16.4542 32.6725 16.5533 32.6584 16.6033C32.6449 16.6513 32.6075 16.7401 32.5099 16.7942L30.7317 17.7831C30.5737 17.8707 30.3675 17.8154 30.2814 17.6628L29.8296 16.8606C29.8278 16.857 29.8256 16.8536 29.8237 16.8501L25.1534 8.55691C25.0957 8.45484 25.1103 8.35697 25.1241 8.30771C25.1374 8.26004 25.1745 8.17197 25.2721 8.11777L27.0525 7.12867C27.2124 7.03974 27.4136 7.09374 27.501 7.24934L28.5419 9.0956C28.7226 9.41607 29.1278 9.52867 29.4469 9.3474C29.7661 9.16606 29.8783 8.75925 29.6977 8.43884L28.6573 6.59339C28.2136 5.80363 27.2054 5.52036 26.4097 5.9619L24.6294 6.951C24.2442 7.16474 23.9659 7.51802 23.8458 7.94596C23.7325 8.34944 23.773 8.77065 23.9585 9.14033L22.9778 9.42567C22.5601 9.54701 22.3065 9.61281 22.1658 9.61281C22.1652 9.61281 22.1647 9.61281 22.1642 9.61281C22.0673 9.61248 21.9616 9.57534 21.6601 9.46067C21.5233 9.40867 21.3529 9.34387 21.1436 9.27053L19.406 8.66072C18.4451 8.32377 18.0117 8.34191 17.3837 8.39944L14.4209 8.66565C13.0703 8.78579 12.2092 9.09166 11.7339 9.62214L10.0454 9.131C10.2271 8.76292 10.2661 8.34577 10.1539 7.94596C10.0338 7.51828 9.7557 7.16507 9.37087 6.95133L7.59159 5.96177C6.79524 5.51982 5.78647 5.80323 5.34268 6.59279L0.215852 15.6946C-0.00362079 16.0825 -0.0579411 16.5337 0.063051 16.9652C0.183246 17.3936 0.461488 17.7472 0.84598 17.9606L2.62527 18.9501C2.87967 19.0913 3.15605 19.1584 3.42878 19.1584C4.00818 19.1584 4.57143 18.8557 4.87418 18.3191L5.06218 17.9853C5.57523 18.212 6.00601 18.5414 6.29959 18.9314C6.01285 19.2678 5.83222 19.683 5.78155 20.1345C5.71462 20.7317 5.88262 21.3175 6.25463 21.7846C6.62345 22.2476 7.15085 22.5397 7.7406 22.6085C7.67818 23.2006 7.84685 23.7808 8.216 24.2426C8.59757 24.7215 9.13686 25.0009 9.70098 25.0669C9.63882 25.6581 9.8069 26.2377 10.1749 26.6998C10.5435 27.1638 11.0711 27.4565 11.6614 27.5253C11.5989 28.1179 11.7676 28.6984 12.1368 29.1602C12.5768 29.7125 13.2264 30.0001 13.8821 30C14.3717 30 14.8647 29.8397 15.2762 29.5097L16.6667 28.3928C16.7771 28.3043 16.8774 28.2065 16.9677 28.1011L17.7619 28.7381C18.1726 29.0672 18.6645 29.227 19.1534 29.227C19.8095 29.2269 20.4601 28.939 20.9007 28.3862C21.1329 28.0947 21.28 27.7621 21.3464 27.4187C21.5786 27.4993 21.8238 27.541 22.0737 27.5409C22.1575 27.5409 22.2419 27.5363 22.3265 27.5269C22.9215 27.4605 23.4535 27.1668 23.8232 26.7013C24.193 26.2388 24.3617 25.6587 24.2993 25.0667C24.863 25.0006 25.4026 24.7212 25.7853 24.2425C26.1665 23.764 26.3195 23.1749 26.2596 22.6084C26.849 22.5394 27.3761 22.2474 27.7441 21.7854C28.1163 21.3197 28.2851 20.7347 28.2191 20.138C28.1691 19.685 27.9883 19.2685 27.701 18.9311C27.9938 18.5413 28.4237 18.2115 28.9371 17.9849L29.1255 18.3194C29.428 18.8558 29.991 19.1583 30.5705 19.1583C30.8434 19.1582 31.12 19.0912 31.3747 18.9498L33.153 17.9609C33.5373 17.7475 33.8155 17.3944 33.9361 16.9668C34.0578 16.5357 34.0046 16.0845 33.7859 15.6955ZM3.71831 17.6625C3.63199 17.8156 3.42566 17.8708 3.26835 17.7834L1.48912 16.794C1.39197 16.74 1.35492 16.6516 1.34137 16.6037C1.32749 16.554 1.31268 16.4554 1.37125 16.3521L6.49887 7.24848C6.55758 7.14401 6.66821 7.08547 6.78309 7.08547C6.83901 7.08547 6.89585 7.09927 6.94831 7.12841L8.72707 8.11763C8.72727 8.11777 8.72746 8.1179 8.72766 8.11797C8.82502 8.17204 8.862 8.26011 8.87542 8.30777C8.88923 8.35704 8.90384 8.45491 8.84547 8.55811L3.71831 17.6625ZM8.56424 21.0933C8.37697 21.2439 8.1405 21.3119 7.89885 21.2849C7.65706 21.258 7.44158 21.1397 7.2919 20.9519C7.14188 20.7635 7.07428 20.5262 7.10144 20.2837C7.12847 20.0421 7.24634 19.8268 7.43454 19.6765L9.92065 17.6814C10.3109 17.3686 10.882 17.433 11.1939 17.824C11.3438 18.0122 11.4115 18.2491 11.3844 18.4909C11.3574 18.7319 11.2395 18.947 11.0523 19.0965C11.0482 19.0998 11.0447 19.1034 11.0407 19.1068L8.56484 21.0928C8.56464 21.0929 8.56444 21.0931 8.56424 21.0933ZM9.25247 23.4089C9.10259 23.2214 9.03486 22.9851 9.06162 22.7435C9.08838 22.5016 9.20639 22.2854 9.39378 22.1345L9.39398 22.1344C9.39412 22.1343 9.39425 22.1342 9.39438 22.1341C9.39445 22.1341 9.39445 22.134 9.39452 22.134L12.9755 19.2616C13.3657 18.9488 13.937 19.0127 14.2487 19.4042C14.3985 19.5922 14.4662 19.8288 14.4394 20.0706C14.4126 20.3126 14.2942 20.5289 14.1064 20.6795L10.5263 23.5508C10.1357 23.8638 9.56458 23.8006 9.25247 23.4089ZM11.8196 26.2017C11.5779 26.1748 11.3626 26.0564 11.2127 25.8677C11.063 25.6797 10.9953 25.4431 11.0221 25.2013C11.0489 24.9595 11.167 24.7434 11.3546 24.5928C11.3548 24.5926 11.355 24.5925 11.3551 24.5924L13.8332 22.6048C13.8362 22.6026 13.8393 22.6007 13.8423 22.5983C14.2314 22.2856 14.8025 22.3492 15.1146 22.7398C15.2646 22.9281 15.3323 23.1654 15.3051 23.4079C15.278 23.6495 15.1602 23.8648 14.972 24.0151L12.486 26.0101C12.2981 26.1608 12.0614 26.2285 11.8196 26.2017ZM16.1704 26.7429C16.1435 26.9847 16.0255 27.2005 15.8376 27.3512L14.4471 28.4684C14.0564 28.7814 13.4853 28.7184 13.1734 28.3266C13.0235 28.1392 12.9557 27.9027 12.9824 27.6606C13.0092 27.4185 13.1271 27.2026 13.3141 27.0526C13.3143 27.0524 13.3146 27.0522 13.3148 27.0521L14.705 25.9365C14.7057 25.9359 14.7065 25.9354 14.7072 25.9349C15.0975 25.6222 15.6686 25.6863 15.9805 26.0775C16.1298 26.2651 16.1974 26.5013 16.1704 26.7429ZM26.7076 20.9518C26.5579 21.1397 26.3424 21.258 26.1007 21.2849C25.8591 21.3122 25.6225 21.2439 25.4353 21.0933C25.4352 21.0932 25.4351 21.0931 25.4349 21.0931C25.4349 21.093 25.4347 21.0929 25.4347 21.0929L23.6578 19.6676C23.3712 19.4377 22.9533 19.4846 22.7245 19.7722C22.4956 20.0598 22.5423 20.4794 22.8288 20.7092L24.6051 22.134C24.9947 22.4473 25.0589 23.0196 24.7488 23.4089C24.4359 23.8004 23.8648 23.864 23.4748 23.5505L21.5474 22.0063C21.2608 21.7767 20.8429 21.8238 20.6142 22.1116C20.3855 22.3993 20.4324 22.8188 20.719 23.0485L22.6455 24.5919C22.8333 24.7428 22.9514 24.9593 22.9782 25.2013C23.005 25.4429 22.9373 25.6793 22.7861 25.8683C22.6368 26.0563 22.4215 26.1747 22.1798 26.2017C21.9379 26.2284 21.7012 26.1606 21.514 26.0107L20.555 25.2407C20.5533 25.2393 20.5519 25.2379 20.5502 25.2366L19.5885 24.4646C19.3019 24.2346 18.8841 24.2814 18.6551 24.5688C18.6265 24.6048 18.6021 24.6428 18.5821 24.6823C18.4859 24.871 18.4875 25.0923 18.5778 25.2778C18.6195 25.3637 18.6797 25.4422 18.759 25.5059L19.7233 26.2801C20.1103 26.5939 20.1736 27.1642 19.8637 27.5533C19.5518 27.9447 18.9806 28.0086 18.5906 27.6963L17.4965 26.8188C17.5421 26.2482 17.3737 25.6917 17.0175 25.2445C16.7961 24.9667 16.5215 24.7563 16.2199 24.6152C16.4409 24.3074 16.5813 23.9458 16.6248 23.5569C16.6918 22.9599 16.5238 22.374 16.1511 21.9062C15.9296 21.6291 15.6554 21.4192 15.3544 21.2783C15.5758 20.9696 15.7161 20.6073 15.7593 20.2179C15.8254 19.6222 15.6572 19.0374 15.2859 18.5712C14.6469 17.7692 13.5664 17.5254 12.667 17.9086C12.595 17.5767 12.4479 17.2636 12.2308 16.991C11.4619 16.0265 10.054 15.8687 9.0917 16.6395L7.31361 18.0664C6.91152 17.5512 6.36493 17.124 5.71867 16.8194L9.37625 10.3244L11.3237 10.8909C11.3326 10.9955 11.3494 11.1055 11.3777 11.2221C11.8491 13.168 13.6337 14.0747 16.0351 13.5889C18.0585 13.1801 18.8915 13.789 20.5506 15.0019C20.7227 15.1277 20.9015 15.2584 21.0887 15.393C22.2818 16.2524 23.5568 17.2625 24.4117 17.9471L26.5672 19.6766C26.7545 19.8266 26.8724 20.0426 26.8991 20.2849C26.9259 20.527 26.8581 20.7635 26.7076 20.9518ZM26.687 18.066L25.2404 16.9054C24.3738 16.2113 23.0808 15.187 21.8625 14.3095C21.6779 14.1768 21.5019 14.0481 21.3324 13.9242C19.6121 12.6665 18.3688 11.7578 15.7731 12.2819C14.9786 12.4426 13.0858 12.6306 12.6683 10.9073C12.6094 10.664 12.6692 10.5804 12.6946 10.5448C12.7834 10.4205 13.1407 10.118 14.5385 9.99375L17.5044 9.72728C17.9877 9.68301 18.2301 9.66074 18.9678 9.91942L20.7055 10.5293C20.8987 10.597 21.0531 10.6557 21.1895 10.7076C22.0262 11.0258 22.2479 11.0257 23.3471 10.7063L24.6282 10.3336L28.2809 16.8198C27.6344 17.1242 27.0884 17.5511 26.687 18.066Z" fill="black"/>
<path d="M30.5847 12.0399C30.9514 12.0399 31.2488 11.7404 31.2488 11.3722C31.2488 11.004 30.9514 10.7055 30.5847 10.7055C30.218 10.7055 29.9207 11.0041 29.9207 11.3722V11.3741C29.9207 11.7423 30.218 12.0399 30.5847 12.0399Z" fill="black"/>
</svg>
