<svg width="30" height="30" viewBox="0 0 30 30" fill="none" xmlns="http://www.w3.org/2000/svg">
<path d="M29.6953 11.9763C29.4979 11.0129 29.2037 10.0654 28.8211 9.16013C28.4449 8.27114 27.9797 7.41391 27.4383 6.61229C26.9016 5.81776 26.2852 5.07128 25.6066 4.39212C24.9275 3.71354 24.1811 3.09708 23.3865 2.56036C22.585 2.01895 21.7277 1.55366 20.8389 1.17749C19.9336 0.794869 18.9861 0.500728 18.0229 0.303267C16.0465 -0.101089 13.9535 -0.101089 11.9771 0.303267C11.0139 0.500728 10.0664 0.794869 9.16113 1.17754C8.27227 1.55372 7.41504 2.01901 6.61348 2.56042C5.81895 3.09719 5.07246 3.71366 4.39336 4.39217C3.71484 5.07128 3.09844 5.81776 2.56172 6.61235C2.02031 7.41391 1.55508 8.2712 1.17891 9.16019C0.795703 10.0655 0.502148 11.013 0.304688 11.9763C0.102539 12.9642 0 13.9815 0 14.9993C0 16.0171 0.102539 17.0344 0.304688 18.0229C0.502148 18.9856 0.795703 19.9331 1.17891 20.8385C1.55508 21.7274 2.02031 22.5846 2.56172 23.3862C3.09844 24.1808 3.71484 24.9279 4.39336 25.6065C5.07246 26.285 5.81895 26.9014 6.61348 27.4382C7.41504 27.9796 8.27227 28.4454 9.16113 28.821C10.0664 29.2042 11.0139 29.4978 11.9771 29.6953C12.965 29.8975 13.9822 30 15 30L15.0018 29.9971V30C16.6143 30 18.201 29.7451 19.7191 29.2424C21.1869 28.7561 22.5673 28.0464 23.8213 27.1335C23.9479 27.0409 24.0305 26.9049 24.0551 26.7508C24.0791 26.5961 24.0421 26.4414 23.9496 26.3149C23.84 26.1637 23.6625 26.0735 23.4755 26.0735C23.3514 26.0735 23.2324 26.1127 23.1316 26.186C20.7574 27.914 17.9461 28.8281 15 28.8281C11.3068 28.8281 7.83457 27.3895 5.22188 24.7779C2.61035 22.1651 1.17188 18.6926 1.17188 14.9993C1.17188 11.3059 2.61035 7.83351 5.22188 5.22122C7.83457 2.60899 11.3068 1.17104 15 1.17045C18.6932 1.17104 22.1654 2.60899 24.7781 5.22122C27.3896 7.83351 28.8281 11.3065 28.8281 14.9993C28.8281 17.6877 28.0558 20.2941 26.5956 22.5366C26.4193 22.8073 26.4961 23.1712 26.7667 23.3476C26.8617 23.4097 26.9725 23.4425 27.0855 23.4425C27.2853 23.4425 27.4687 23.3435 27.5777 23.1765C29.1627 20.7435 30 17.9156 30 14.9993C30 13.9815 29.8975 12.9642 29.6953 11.9763Z" fill="black"/>
<path d="M15 2.92844C8.34439 2.92844 2.92969 8.34345 2.92969 14.9993C2.92969 21.6553 8.34439 27.0703 15 27.0703C21.6556 27.0703 27.0703 21.6553 27.0703 14.9994C27.0703 8.3435 21.6556 2.92844 15 2.92844ZM17.9137 20.2188C17.0272 20.7146 16.0252 20.9761 15 20.9761C13.9748 20.9761 12.9728 20.7146 12.0863 20.2188C11.6436 18.4111 10.5544 16.8547 9.07834 15.8098C9.04213 15.5433 9.02338 15.2718 9.02338 14.9993C9.02338 13.2738 9.75363 11.661 11.0376 10.5252C12.3068 10.967 13.6356 11.1906 14.9999 11.1906C16.3642 11.1906 17.693 10.967 18.9622 10.5252C20.2463 11.661 20.9766 13.2738 20.9766 14.9993C20.9766 15.2718 20.9578 15.5433 20.9216 15.8098C19.4456 16.8547 18.3564 18.4112 17.9137 20.2188ZM6.72855 7.91073C7.65457 8.78366 8.7017 9.49745 9.85148 10.0399C8.57104 11.3648 7.85156 13.1264 7.85156 14.9993C7.85156 15.0339 7.85221 15.0684 7.85268 15.1029C6.88816 14.6605 5.81619 14.4134 4.6875 14.4134H4.11744C4.24922 11.9379 5.21092 9.67927 6.72855 7.91073ZM20.1485 10.0399C21.2983 9.49751 22.3454 8.78366 23.2714 7.91079C24.7891 9.67927 25.7508 11.9379 25.8826 14.4134H25.3125C24.1838 14.4134 23.1118 14.6605 22.1473 15.1029C22.1479 15.0684 22.1484 15.0339 22.1484 14.9993C22.1484 13.1264 21.429 11.3648 20.1485 10.0399ZM22.462 7.06358C20.4349 8.97345 17.8072 10.0186 15 10.0186C12.1928 10.0186 9.56508 8.97339 7.53803 7.06358C9.48949 5.22737 12.1154 4.10038 15 4.10038C17.8845 4.10038 20.5105 5.22737 22.462 7.06358ZM4.11744 15.5853H4.6875C8.24145 15.5853 11.1328 18.4768 11.1328 22.0309V25.1887C7.20047 23.6912 4.35135 19.9798 4.11744 15.5853ZM12.3047 25.5608V22.031C12.3047 21.8919 12.3007 21.7538 12.2933 21.6166C13.1473 21.9658 14.0657 22.1481 15 22.1481C15.9343 22.1481 16.8527 21.9658 17.7067 21.6166C17.6993 21.7538 17.6953 21.8919 17.6953 22.031V25.5608C16.833 25.781 15.9299 25.8984 15 25.8984C14.0701 25.8984 13.167 25.781 12.3047 25.5608ZM18.8672 25.1888V22.031C18.8672 18.4768 21.7586 15.5853 25.3125 15.5853H25.8826C25.6487 19.9798 22.7995 23.6912 18.8672 25.1888Z" fill="black"/>
<path d="M25.4546 25.5086C25.7783 25.5086 26.0406 25.2463 26.0406 24.9227C26.0406 24.5991 25.7783 24.3367 25.4546 24.3367C25.131 24.3367 24.8687 24.5991 24.8687 24.9227C24.8687 25.2463 25.131 25.5086 25.4546 25.5086Z" fill="black"/>
</svg>
