<svg width="26" height="30" viewBox="0 0 26 30" fill="none" xmlns="http://www.w3.org/2000/svg">
<path d="M24.7149 7.73966H24.3971C24.2175 7.07681 23.9645 6.44109 23.6414 5.84076L23.8653 5.60686C24.1083 5.35521 24.2423 5.01954 24.2428 4.66172C24.2433 4.30308 24.1097 3.96606 23.8665 3.71271L22.4376 2.22414C22.1955 1.97043 21.8723 1.83069 21.5275 1.83069C21.1828 1.83069 20.8595 1.97044 20.6191 2.22232L20.3933 2.45692C19.8173 2.12049 19.2072 1.85706 18.5713 1.66998V1.33829C18.5713 0.600388 17.9949 0 17.2865 0H15.2636C14.5542 0 13.9771 0.600388 13.9771 1.33829V1.67021C13.3422 1.85724 12.7325 2.12061 12.1559 2.45686L11.9326 2.2242C11.6905 1.97049 11.3672 1.83075 11.0225 1.83075C10.6777 1.83075 10.3545 1.97049 10.1137 2.22279L8.68089 3.714C8.18205 4.2367 8.18256 5.08534 8.68201 5.60575L8.90819 5.84141C8.58398 6.44338 8.33096 7.07898 8.15245 7.73971H7.8351C7.12658 7.73971 6.5502 8.3401 6.5502 9.078V11.1857C6.5502 11.9245 7.12658 12.5257 7.8351 12.5257H8.15262C8.33113 13.1853 8.58403 13.8206 8.90807 14.4231L8.68201 14.658C8.18109 15.1799 8.18115 16.029 8.68201 16.5509L10.1136 18.0424C10.3556 18.2945 10.6784 18.4334 11.0226 18.4334C11.3667 18.4334 11.6895 18.2945 11.9322 18.0418L12.1565 17.8073C12.7347 18.1447 13.3442 18.4081 13.9771 18.594V18.9254C13.9771 19.6633 14.5542 20.2637 15.2636 20.2637H17.2865C17.995 20.2637 18.5714 19.6633 18.5714 18.9254V18.5942C19.2054 18.4083 19.8153 18.1448 20.3929 17.8072L20.6187 18.0424C20.8607 18.2945 21.1835 18.4334 21.5276 18.4334C21.8718 18.4334 22.1946 18.2945 22.4368 18.0422L23.8654 16.5521C24.1088 16.3 24.2428 15.9635 24.2429 15.6045C24.2429 15.2456 24.1088 14.909 23.8666 14.658L23.6417 14.4237C23.9646 13.8229 24.2174 13.1874 24.397 12.5257H24.7151C25.4236 12.5257 26 11.9246 26 11.1857V9.07806C25.9998 8.34004 25.4234 7.73966 24.7149 7.73966ZM24.8743 11.1856C24.8743 11.2768 24.8013 11.3538 24.7149 11.3538H23.9593C23.6962 11.3538 23.4682 11.5435 23.4103 11.8107C23.2262 12.6602 22.906 13.465 22.4585 14.2028C22.318 14.4343 22.3504 14.7362 22.5362 14.9298L23.0714 15.4875C23.1112 15.5288 23.1172 15.5784 23.1172 15.6045C23.1172 15.6305 23.1112 15.6802 23.07 15.7229L21.6404 17.2141C21.6007 17.2554 21.5526 17.2616 21.5275 17.2616C21.5024 17.2616 21.4543 17.2555 21.4147 17.2141L20.8791 16.6561C20.6928 16.462 20.4023 16.4284 20.1797 16.5753C19.4699 17.0437 18.698 17.3772 17.8856 17.5664C17.6285 17.6263 17.4458 17.8639 17.4458 18.1382V18.9255C17.4458 19.0157 17.3728 19.092 17.2864 19.092H15.2635C15.1763 19.092 15.1025 19.0157 15.1025 18.9255V18.1382C15.1025 17.864 14.9199 17.6265 14.6629 17.5665C13.8519 17.3772 13.0799 17.0436 12.3681 16.575C12.2755 16.514 12.1712 16.4843 12.0676 16.4843C11.9219 16.4843 11.7774 16.5431 11.6687 16.6567L11.1353 17.2141C11.0956 17.2555 11.0475 17.2617 11.0224 17.2617C10.9973 17.2617 10.9492 17.2555 10.9096 17.2142L9.47804 15.7227C9.41659 15.6587 9.41659 15.5504 9.47748 15.487L10.0131 14.9307C10.1995 14.7371 10.232 14.4348 10.0915 14.2031C9.6417 13.4615 9.32148 12.657 9.13976 11.8119C9.08225 11.5442 8.85405 11.354 8.59062 11.354H7.83505C7.74866 11.354 7.67567 11.277 7.67567 11.1858V9.07818C7.67567 8.98795 7.74866 8.91172 7.83505 8.91172H8.59062C8.85416 8.91172 9.08236 8.72136 9.13982 8.45359C9.32154 7.607 9.64164 6.80278 10.0912 6.06317C10.2319 5.83162 10.1997 5.52952 10.0137 5.3357L9.4781 4.77767C9.41681 4.71381 9.41732 4.60501 9.47787 4.54155L10.9107 3.05034C10.9502 3.00897 10.9976 3.00276 11.0224 3.00276C11.0472 3.00276 11.0946 3.00891 11.1352 3.05151L11.6692 3.60789C11.8553 3.80177 12.1456 3.83546 12.3681 3.68893C13.0762 3.22271 13.8486 2.88909 14.6638 2.69726C14.9203 2.63691 15.1025 2.39962 15.1025 2.12576V1.33829C15.1025 1.24806 15.1762 1.17183 15.2634 1.17183H17.2864C17.3727 1.17183 17.4457 1.24806 17.4457 1.33829V2.12559C17.4457 2.3995 17.628 2.63686 17.8847 2.69715C18.7013 2.88892 19.4734 3.22242 20.1797 3.68846C20.402 3.83511 20.6921 3.80183 20.8784 3.6083L21.4158 3.0501C21.4553 3.00874 21.5027 3.00253 21.5275 3.00253C21.5522 3.00253 21.5997 3.00868 21.6403 3.05127L23.0702 4.54108C23.1112 4.58374 23.1172 4.63395 23.1171 4.66008C23.1171 4.69143 23.1091 4.73701 23.0696 4.77797L22.5356 5.33599C22.35 5.52987 22.3181 5.83162 22.4587 6.06288C22.906 6.79885 23.2262 7.60343 23.4102 8.4543C23.4681 8.72159 23.6961 8.91149 23.9592 8.91149H24.7149C24.8013 8.91149 24.8742 8.98771 24.8742 9.07795V11.1856H24.8743Z" fill="black"/>
<path d="M14.5262 4.20125C14.2291 4.29617 14.0621 4.62387 14.1533 4.93324C14.2444 5.2426 14.5593 5.41638 14.8563 5.32152C16.5705 4.7741 18.4222 5.25397 19.6891 6.57398C21.4911 8.45131 21.568 11.453 19.9225 13.4268C19.6749 12.6042 19.1744 11.88 18.4947 11.3727C18.7941 10.9206 18.9699 10.3733 18.9699 9.78386C18.9699 8.23546 17.7606 6.97568 16.2742 6.97568C14.7887 6.97568 13.5802 8.2354 13.5802 9.78386C13.5802 10.3733 13.7559 10.9207 14.0552 11.3728C13.3751 11.8804 12.8744 12.6052 12.6271 13.4284C11.5387 12.1239 11.1662 10.3263 11.6572 8.65286C11.748 8.34338 11.5806 8.01586 11.2833 7.92135C10.9862 7.82696 10.6716 8.00103 10.5807 8.31057C9.93428 10.514 10.503 12.8926 12.0647 14.5179C13.1895 15.6898 14.6848 16.3352 16.275 16.3352C17.8653 16.3352 19.3606 15.6898 20.4852 14.5181C22.8075 12.1004 22.8076 8.16509 20.4854 5.74567C18.9231 4.11793 16.6397 3.52616 14.5262 4.20125ZM16.2742 8.14751C17.1399 8.14751 17.8443 8.88155 17.8443 9.78386C17.8443 10.6852 17.1399 11.4185 16.2742 11.4185C15.4093 11.4185 14.7056 10.6852 14.7056 9.78386C14.7056 8.88155 15.4093 8.14751 16.2742 8.14751ZM16.275 15.1634C15.3062 15.1634 14.3808 14.8678 13.5935 14.3177C13.6823 13.4394 14.1683 12.6506 14.8993 12.1961C15.3021 12.4461 15.7722 12.5903 16.2742 12.5903C16.7767 12.5903 17.2472 12.4461 17.6504 12.1958C18.3816 12.6503 18.8678 13.4393 18.9565 14.3177C18.1693 14.8678 17.2439 15.1634 16.275 15.1634Z" fill="black"/>
<path d="M12.4627 6.74575C12.6068 6.74575 12.7508 6.68857 12.8607 6.57413L12.8623 6.57249C13.082 6.34368 13.0813 5.97349 12.8615 5.74468C12.6417 5.51593 12.2846 5.51675 12.0647 5.7455C11.845 5.97431 11.845 6.34532 12.0647 6.57419C12.1747 6.68857 12.3187 6.74575 12.4627 6.74575Z" fill="black"/>
<path d="M22.3025 20.3923L17.9866 22.7019C17.6173 22.3082 17.1028 22.0631 16.5341 22.0631H13.569C13.4112 22.0631 13.3692 22.0511 13.3665 22.0506C13.3422 22.0364 13.268 21.9635 13.2084 21.9049L13.1836 21.8805C10.7801 19.5208 8.74791 19.6702 6.43658 20.6205C6.06583 20.7725 6.05873 20.7728 5.68748 20.7899L5.02955 20.7904C4.83314 20.1896 4.28653 19.7561 3.64413 19.7561H1.46342C0.656466 19.7561 0 20.4398 0 21.2804V27.2413C0 28.0827 0.656522 28.7672 1.46342 28.7672H3.64413C4.28625 28.7672 4.83269 28.3336 5.02927 27.7325H6.24405C6.38429 27.7325 6.51244 27.7814 6.64688 27.8189L12.2883 29.3912C12.5359 29.4611 12.7631 29.5299 12.9829 29.5963C13.7081 29.8157 14.3177 30.0001 14.9531 30C15.6714 30 16.4227 29.7643 17.4108 29.0771C17.4155 29.0738 17.4202 29.0705 17.4248 29.0671L24.3798 23.9085C25.2865 23.2361 25.5498 22.0228 24.9932 21.0878C24.4462 20.163 23.2894 19.8639 22.3025 20.3923ZM3.98207 27.2413C3.98207 27.4333 3.82731 27.5955 3.64419 27.5955H1.46347C1.28029 27.5955 1.12559 27.4333 1.12559 27.2413V21.2804C1.12559 21.0861 1.27714 20.9279 1.46347 20.9279H3.64419C3.83052 20.9279 3.98207 21.0861 3.98207 21.2804V27.2413ZM23.7269 22.9541L16.7787 28.1076C15.3574 29.0941 14.7531 28.9114 13.297 28.4711C13.0724 28.4031 12.8402 28.3329 12.5811 28.2598L6.93811 26.687C6.86923 26.6678 6.81588 26.6521 6.77249 26.6394C6.56866 26.5797 6.49235 26.5608 6.24417 26.5608H5.1076V21.9627H5.67982C5.68815 21.9627 5.69648 21.9625 5.70481 21.9621L5.73717 21.9607C6.19509 21.9396 6.32318 21.9264 6.84936 21.7108C8.8675 20.8812 10.4246 20.7824 12.4115 22.7333L12.4359 22.7572C12.7739 23.0894 12.9833 23.235 13.569 23.235H16.5341C17.0342 23.235 17.4411 23.6598 17.4411 24.182C17.4411 24.7033 17.0342 25.1275 16.5341 25.1275H11.7294C11.4186 25.1275 11.1667 25.3898 11.1667 25.7134C11.1667 26.037 11.4186 26.2993 11.7294 26.2993H16.5341C17.6548 26.2993 18.5666 25.3495 18.5666 24.182C18.5666 24.0283 18.5504 23.8784 18.5204 23.7339L22.8171 21.4345C23.217 21.2205 23.7637 21.2437 24.0358 21.7037C24.2761 22.1076 24.1434 22.6451 23.7269 22.9541Z" fill="black"/>
</svg>
