<svg width="28" height="30" viewBox="0 0 28 30" fill="none" xmlns="http://www.w3.org/2000/svg">
<path d="M27.739 26.1656L26.7383 24.0486C26.6422 23.8459 26.4355 23.7146 26.2118 23.7146C26.125 23.7146 26.0411 23.7334 25.9619 23.7715C25.8215 23.8389 25.7156 23.9566 25.6631 24.1044C25.6112 24.252 25.6194 24.4107 25.6864 24.552L26.6871 26.669C26.7849 26.8764 26.835 27.0985 26.835 27.3276C26.8345 27.9141 26.5041 28.4491 25.9939 28.6911L25.991 28.6923L25.9899 28.6935C25.7999 28.7826 25.5996 28.8277 25.394 28.8283C24.8301 28.8271 24.3304 28.4984 24.0898 27.9711L23.3873 26.43C23.2924 26.222 23.0851 26.0878 22.8579 26.0878H20.5437V24.8607H21.7646C21.9638 24.8607 22.1467 24.7599 22.2544 24.5912C22.3622 24.4224 22.3768 24.2126 22.2941 24.0305L20.5169 20.1328C20.4219 19.9247 20.2146 19.7906 19.9874 19.7906H18.7941C18.7974 19.3306 18.6296 18.8696 18.2895 18.5195C17.959 18.1791 17.5185 17.9917 17.0491 17.9917C16.5948 17.9917 16.1674 18.1674 15.8406 18.4874C15.6881 18.6106 15.3138 18.9731 14.944 19.7906H8.71998V16.7648H20.6175L21.4602 18.8575C21.5492 19.0787 21.7628 19.2235 22 19.2235H23.1669L23.5476 20.0287C23.6441 20.2329 23.8488 20.363 24.0736 20.363H25.3783C25.7 20.363 25.9608 20.1006 25.9608 19.777V18.5638H27.1258C27.4474 18.5638 27.7082 18.3015 27.7082 17.9779C27.7082 17.6542 27.4474 17.3919 27.1258 17.3919H25.9608V16.1787C25.9608 15.8551 25.7 15.5927 25.3783 15.5927L17.6872 15.593L22.914 10.2113L23.3236 10.6331C23.4332 10.7459 23.5835 10.8096 23.7403 10.8096C23.8971 10.8096 24.0473 10.7459 24.1569 10.6331L25.8094 8.93156L25.8105 8.93027C26.9398 7.76619 26.9395 5.8732 25.8094 4.70965L25.0206 3.89748L26.3753 2.81262C26.5042 2.70937 26.5836 2.55609 26.5938 2.39068C26.6041 2.22527 26.5442 2.06326 26.4291 1.94473L24.7765 0.243164C24.6582 0.121289 24.4928 0.0572461 24.3239 0.067793C24.1548 0.0783398 23.9987 0.162422 23.8962 0.298125L22.8588 1.67145L22.0912 0.88125C21.5393 0.313008 20.8045 0 20.0222 0C19.2403 0 18.5058 0.312598 17.954 0.880195L17.9529 0.88125L16.3004 2.58275C16.0793 2.81045 16.0793 3.17402 16.3004 3.40172L16.729 3.84293L11.1363 9.60135C10.9152 9.82898 10.9152 10.1926 11.1363 10.4203L12.5977 11.9251L9.03527 15.593L5.80751 15.5929C5.48581 15.5929 5.22503 15.8552 5.22503 16.1788V20.3769C5.22503 20.7005 5.48581 20.9628 5.80751 20.9628L14.5285 20.9626C14.2395 22.0104 14.0203 23.4666 14.0203 25.4745C14.0203 26.4756 14.7622 27.2599 15.7095 27.2599C16.6566 27.2599 17.3986 26.4756 17.3986 25.4745C17.3986 22.6956 18.2025 21.2124 18.3369 20.984C18.3432 20.977 18.349 20.9696 18.3552 20.9626H19.6134L20.8564 23.6889H19.9612C19.808 23.6889 19.6578 23.7516 19.5494 23.8606C19.4411 23.9696 19.3787 24.1208 19.3787 24.2749V26.6736C19.3787 26.8277 19.441 26.9789 19.5494 27.0885C19.6578 27.1975 19.808 27.2596 19.9612 27.2596H22.4839L23.0309 28.459C23.2435 28.926 23.5813 29.3174 24.0065 29.591C24.4236 29.8583 24.9024 30 25.3916 30H25.3946C25.7703 30 26.1501 29.9133 26.4931 29.7497C26.4955 29.7486 26.4978 29.7474 26.5007 29.7462L26.503 29.745C26.9609 29.5236 27.343 29.1755 27.6074 28.7378C27.8643 28.3136 28 27.8255 28 27.3275C28 26.9285 27.9097 26.5266 27.739 26.1656ZM24.4152 1.54799L25.1453 2.29969L24.2023 3.05484L23.6818 2.51889L24.4152 1.54799ZM24.4416 19.1912L24.0609 18.386C23.9643 18.1818 23.7596 18.0517 23.5349 18.0517H22.3926L21.8743 16.7647H24.7959V19.1912H24.4416ZM21.2579 1.70021L24.9762 5.52855C25.5221 6.09064 25.6373 6.93094 25.3217 7.61039L19.2486 1.35738C19.4864 1.23604 19.7496 1.17188 20.0221 1.17188C20.4882 1.17188 20.9271 1.35949 21.2579 1.70021ZM18.3695 2.12918L24.5784 8.52205L23.7403 9.38508L17.5314 2.99221L18.3695 2.12918ZM17.5433 4.68141L22.0996 9.37277L16.9235 14.7022L12.3672 10.0109L17.5433 4.68141ZM13.412 12.7635L14.2502 13.6265L12.3405 15.5928H10.6641L13.412 12.7635ZM15.0645 14.465L16.16 15.593H13.969L15.0645 14.465ZM7.55484 19.7909H6.38993V16.7647H7.55484V19.7909ZM17.3899 20.2976C17.3426 20.3681 16.2336 22.0618 16.2336 25.4745C16.2336 25.7793 16.0536 26.088 15.7095 26.088C15.3653 26.088 15.1852 25.7793 15.1852 25.4745C15.1852 20.7407 16.4591 19.5004 16.5648 19.406C16.6004 19.3836 16.7727 19.1636 17.0491 19.1636C17.2021 19.1636 17.3466 19.2257 17.4561 19.3385C17.8941 19.779 17.4094 20.2684 17.3899 20.2976Z" fill="black"/>
<path d="M3.30016 20.4185L1.43628 21.0182C1.12989 21.1167 0.960915 21.4465 1.05895 21.7547C1.13805 22.0037 1.36702 22.1623 1.61359 22.1623C1.67236 22.1623 1.73218 22.1533 1.79118 22.1343L3.65507 21.5346C3.96145 21.4361 4.13043 21.1062 4.0324 20.798C3.93442 20.4898 3.60649 20.3197 3.30016 20.4185Z" fill="black"/>
<path d="M3.65507 15.0209L1.79118 14.4212C1.4848 14.3225 1.15692 14.4926 1.05895 14.8008C0.960915 15.109 1.12989 15.4388 1.43628 15.5374L3.30016 16.1371C3.35917 16.1561 3.41899 16.1651 3.47776 16.1651C3.72427 16.1651 3.9533 16.0064 4.0324 15.7575C4.13043 15.4493 3.96145 15.1195 3.65507 15.0209Z" fill="black"/>
<path d="M25.0864 22.5053C25.4081 22.5053 25.6689 22.2429 25.6689 21.9193C25.6689 21.5957 25.4081 21.3334 25.0864 21.3334C24.7647 21.3334 24.5039 21.5957 24.5039 21.9193C24.5039 22.2429 24.7647 22.5053 25.0864 22.5053Z" fill="black"/>
<path d="M0.582481 19H2.44636C2.76807 19 3.02885 18.7377 3.02885 18.4141L3.02873 18.4116L3.02885 18.4091C3.02885 18.0855 2.76807 17.8232 2.44636 17.8232H0.582481C0.260777 17.8232 0 18.0855 0 18.4091L0.000116432 18.4116L0 18.4141C0 18.7377 0.260835 19 0.582481 19Z" fill="black"/>
</svg>
