<svg width="28" height="28" viewBox="0 0 28 28" xmlns="http://www.w3.org/2000/svg">
<path d="M14 0C6.2681 0 0 6.2681 0 14C0 21.7319 6.2681 28 14 28C21.7319 28 28 21.7319 28 14C27.9913 6.27174 21.7283 0.00865888 14 0ZM14 27.0667C6.78353 27.0667 0.933333 21.2165 0.933333 14C0.933333 6.78353 6.78353 0.933333 14 0.933333C21.2165 0.933333 27.0667 6.78353 27.0667 14C27.0585 21.2131 21.2131 27.0585 14 27.0667Z"/>
<path d="M20.1353 15.7072L16.1743 15.0072C15.9738 14.9718 15.7737 15.0703 15.6796 15.2507L14.7191 17.0912C13.0197 16.3386 11.6617 14.9798 10.9097 13.2799L12.7483 12.3195C12.9288 12.2254 13.0272 12.0253 12.9919 11.8248L12.2919 7.86429C12.2701 7.73965 12.1985 7.62936 12.0937 7.5585C11.0922 6.88311 9.79977 6.8152 8.73314 7.38213C7.6665 7.94928 7 9.05876 7 10.2667C7.00661 16.1918 11.8082 20.9934 17.7333 21C18.9415 20.9998 20.0509 20.3328 20.6179 19.266C21.1846 18.1989 21.1162 16.9062 20.4399 15.9049C20.3693 15.8006 20.2594 15.729 20.1353 15.7072ZM17.7333 20.0667C12.3236 20.0605 7.93949 15.6764 7.93333 10.2667C7.93311 9.4377 8.37288 8.67093 9.08838 8.25212C9.80387 7.83353 10.688 7.82601 11.4105 8.23252L12.0139 11.6512L10.1006 12.6499C9.89092 12.7593 9.79613 13.0079 9.87975 13.2291C10.7329 15.4859 12.5139 17.268 14.7704 18.1221C14.9917 18.2057 15.2403 18.1109 15.3496 17.9013L16.3488 15.9879L19.7675 16.5915C20.1731 17.3138 20.1649 18.197 19.7465 18.9121C19.3279 19.6269 18.5618 20.0664 17.7333 20.0667Z" />
</svg>
