<svg width="19" height="18" viewBox="0 0 19 18" fill="none" xmlns="http://www.w3.org/2000/svg">
<path d="M18.0308 5.29207C17.989 4.33565 17.8358 3.67813 17.6164 3.10837C17.39 2.50359 17.0417 1.96214 16.5853 1.51202C16.1395 1.0549 15.5996 0.699693 15.0075 0.474704C14.4399 0.253148 13.792 0.0984845 12.8446 0.0563161C11.8902 0.0105764 11.5872 0 9.16646 0C6.74575 0 6.44275 0.0105764 5.49186 0.0527448C4.5445 0.0949132 3.89319 0.249714 3.32897 0.471132C2.72978 0.699693 2.19344 1.05133 1.74759 1.51202C1.29479 1.96214 0.943085 2.50717 0.720089 3.10494C0.50063 3.67813 0.34743 4.33208 0.305661 5.28849C0.260354 6.25205 0.249878 6.55794 0.249878 9.00179C0.249878 11.4456 0.260354 11.7515 0.302124 12.7115C0.343893 13.6679 0.497228 14.3254 0.716687 14.8952C0.943085 15.5 1.29479 16.0414 1.74759 16.4916C2.19344 16.9487 2.73331 17.3039 3.32543 17.5289C3.89319 17.7504 4.54096 17.9051 5.48845 17.9473C6.43922 17.9896 6.74235 18 9.16306 18C11.5838 18 11.8868 17.9896 12.8377 17.9473C13.785 17.9051 14.4363 17.7504 15.0006 17.5289C16.1988 17.0612 17.1462 16.1048 17.6094 14.8952C17.8288 14.322 17.9821 13.6679 18.0239 12.7115C18.0656 11.7515 18.0761 11.4456 18.0761 9.00179C18.0761 6.55794 18.0726 6.25205 18.0308 5.29207ZM16.4252 12.6412C16.3868 13.5203 16.2406 13.995 16.1187 14.3114C15.8191 15.0956 15.2026 15.718 14.4259 16.0204C14.1124 16.1435 13.6388 16.2911 12.7714 16.3297C11.831 16.3721 11.5489 16.3825 9.17 16.3825C6.79106 16.3825 6.50548 16.3721 5.56846 16.3297C4.6977 16.2911 4.22748 16.1435 3.91401 16.0204C3.52747 15.8762 3.17563 15.6476 2.89005 15.3487C2.59399 15.0569 2.36759 14.7052 2.22474 14.315C2.10283 13.9985 1.95657 13.5203 1.91834 12.6448C1.87643 11.6953 1.86609 11.4105 1.86609 9.00879C1.86609 6.60712 1.87643 6.3188 1.91834 5.37297C1.95657 4.49389 2.10283 4.01918 2.22474 3.70272C2.36759 3.31235 2.59399 2.95728 2.89359 2.66883C3.18257 2.36995 3.53088 2.14139 3.91755 1.9973C4.23102 1.87423 4.70477 1.72657 5.57199 1.68783C6.51241 1.64567 6.79459 1.63509 9.1734 1.63509C11.5559 1.63509 11.8379 1.64567 12.775 1.68783C13.6457 1.72657 14.1159 1.87423 14.4294 1.9973C14.8159 2.14139 15.1678 2.36995 15.4534 2.66883C15.7494 2.96072 15.9758 3.31235 16.1187 3.70272C16.2406 4.01918 16.3868 4.49732 16.4252 5.37297C16.467 6.32238 16.4775 6.60712 16.4775 9.00879C16.4775 11.4105 16.467 11.6918 16.4252 12.6412Z" fill="#5F5F5F"/>
<path d="M9.16646 4.37782C6.63786 4.37782 4.58627 6.44888 4.58627 9.00179C4.58627 11.5547 6.63786 13.6258 9.16646 13.6258C11.6952 13.6258 13.7467 11.5547 13.7467 9.00179C13.7467 6.44888 11.6952 4.37782 9.16646 4.37782ZM9.16646 12.0012C7.52603 12.0012 6.1954 10.658 6.1954 9.00179C6.1954 7.34554 7.52603 6.00234 9.16646 6.00234C10.807 6.00234 12.1375 7.34554 12.1375 9.00179C12.1375 10.658 10.807 12.0012 9.16646 12.0012Z" fill="#5F5F5F"/>
<path d="M14.9972 4.195C14.9972 4.79113 14.5184 5.27448 13.9278 5.27448C13.3373 5.27448 12.8585 4.79113 12.8585 4.195C12.8585 3.59874 13.3373 3.11552 13.9278 3.11552C14.5184 3.11552 14.9972 3.59874 14.9972 4.195Z" fill="#5F5F5F"/>
</svg>
