<svg width="24" height="24" viewBox="0 0 24 24" fill="none" xmlns="http://www.w3.org/2000/svg">
<path d="M13.6698 22.0001H13.6098C13.3897 21.9868 13.1802 21.9012 13.0138 21.7565C12.8474 21.6118 12.7335 21.4162 12.6898 21.2001L10.9998 13.0001L2.79983 11.3101C2.5833 11.2671 2.38708 11.1536 2.24178 10.9874C2.09648 10.8212 2.01026 10.6116 1.99656 10.3913C1.98286 10.1709 2.04245 9.95227 2.16605 9.76935C2.28964 9.58643 2.47029 9.44956 2.67983 9.38006L18.6798 4.05006C18.8594 3.9759 19.0567 3.95567 19.2476 3.99185C19.4386 4.02802 19.6148 4.11903 19.7548 4.25374C19.8948 4.38846 19.9926 4.56105 20.0361 4.75042C20.0796 4.93979 20.067 5.13773 19.9998 5.32006L14.6698 21.3201C14.6002 21.527 14.4648 21.7056 14.2843 21.8283C14.1037 21.9511 13.8879 22.0114 13.6698 22.0001ZM6.86983 10.1001L12.0598 11.1601C12.2538 11.1975 12.4324 11.2915 12.573 11.4304C12.7136 11.5692 12.8099 11.7465 12.8498 11.9401L13.8998 17.1301L17.4198 6.58006L6.86983 10.1001Z" fill="#FB4A23"/>
</svg>
