<svg width="339" height="27" viewBox="0 0 339 27" fill="none" xmlns="http://www.w3.org/2000/svg">
<circle cx="169.5" cy="13.5" r="13.5" fill="#FB4A23"/>
<path d="M166.226 13.9352C166.708 14.072 167.076 14.3318 167.33 14.7148C167.613 15.0703 167.755 15.508 167.755 16.0277C167.755 16.6842 167.543 17.2175 167.118 17.6278C166.693 18.0381 166.17 18.2433 165.547 18.2433C164.868 18.2433 164.316 18.0381 163.891 17.6278C163.495 17.1902 163.297 16.6568 163.297 16.0277C163.297 15.6995 163.325 15.3849 163.382 15.084C163.467 14.7558 163.622 14.2908 163.849 13.689L165.632 8.02704H167.67L166.226 13.9352ZM173.444 13.9352C173.925 14.072 174.293 14.3318 174.548 14.7148C174.831 15.0703 174.973 15.508 174.973 16.0277C174.973 16.6842 174.76 17.2175 174.336 17.6278C173.911 18.0381 173.387 18.2433 172.765 18.2433C172.085 18.2433 171.534 18.0381 171.109 17.6278C170.713 17.1902 170.515 16.6568 170.515 16.0277C170.515 15.6995 170.543 15.3849 170.599 15.084C170.684 14.7558 170.84 14.2908 171.067 13.689L172.85 8.02704H174.888L173.444 13.9352Z" fill="white"/>
<line x1="4.37114e-08" y1="12.5" x2="128" y2="12.5" stroke="#E8E8E8"/>
<line x1="211" y1="12.5" x2="339" y2="12.5" stroke="#E8E8E8"/>
</svg>
