<svg width="54" height="54" viewBox="0 0 54 54" fill="none" xmlns="http://www.w3.org/2000/svg">
<path d="M33.7459 54C27.5435 54 22.4974 48.9538 22.4974 42.7511C22.4974 36.5485 27.5435 31.5023 33.7459 31.5023C35.017 31.5023 36.2341 31.707 37.3634 32.1074C37.9484 32.3167 38.2543 32.9601 38.0451 33.545C37.8359 34.13 37.1902 34.4337 36.6075 34.2267C35.7212 33.9118 34.7605 33.752 33.7459 33.752C28.7831 33.752 24.7471 37.7881 24.7471 42.7511C24.7471 47.7141 28.7831 51.7502 33.7459 51.7502C38.7088 51.7502 42.7447 47.7141 42.7447 42.7511C42.7447 41.7365 42.585 40.7758 42.27 39.8894C42.0631 39.3045 42.3668 38.661 42.9517 38.4518C43.5389 38.2448 44.18 38.5485 44.3892 39.1335C44.7897 40.2629 44.9944 41.48 44.9944 42.7511C44.9944 48.9538 39.9483 54 33.7459 54Z" fill="white"/>
<path d="M33.7459 47.2507C31.2645 47.2507 29.2465 45.2326 29.2465 42.7511C29.2465 41.552 29.7145 40.4204 30.5649 39.5699C31.0035 39.1312 31.7167 39.1312 32.1554 39.5699C32.5941 40.0087 32.5941 40.7218 32.1554 41.1605C31.7302 41.588 31.4962 42.1527 31.4962 42.7511C31.4962 43.9908 32.5063 45.0009 33.7459 45.0009C34.3443 45.0009 34.909 44.7669 35.3365 44.3417C35.7752 43.903 36.4883 43.903 36.927 44.3417C37.3657 44.7804 37.3657 45.4936 36.927 45.9323C36.0766 46.7827 34.945 47.2507 33.7459 47.2507Z" fill="white"/>
<path d="M33.7459 43.876C33.458 43.876 33.17 43.7658 32.9495 43.5476C32.5108 43.1088 32.5108 42.3957 32.9495 41.957L40.8235 34.0827C41.2622 33.644 41.9753 33.644 42.414 34.0827C42.8527 34.5215 42.8527 35.2346 42.414 35.6733L34.5401 43.5476C34.3218 43.7658 34.0339 43.876 33.7459 43.876Z" fill="white"/>
<path d="M47.2441 36.0018H41.6199C40.9989 36.0018 40.495 35.4979 40.495 34.8769V29.2525C40.495 28.9533 40.6143 28.6675 40.8235 28.4561L46.4477 22.8316C46.7694 22.5077 47.2531 22.4109 47.6738 22.5886C48.0945 22.7619 48.3689 23.1736 48.3689 23.628V28.1276H52.8683C53.3228 28.1276 53.7345 28.4021 53.9077 28.8228C54.0832 29.2435 53.9864 29.7272 53.6647 30.0489L48.0405 35.6733C47.829 35.8826 47.5433 36.0018 47.2441 36.0018ZM42.7447 33.752H46.7784L50.153 30.3774H47.2441C46.6232 30.3774 46.1193 29.8734 46.1193 29.2525V26.3435L42.7447 29.7182V33.752Z" fill="white"/>
<path d="M20.2477 36.4743C19.9598 36.4743 19.6718 36.364 19.4514 36.1458L11.4199 28.1141C10.997 27.6911 10.979 27.014 11.3772 26.5685L22.2185 14.4197C22.2882 14.3162 22.3827 14.2195 22.4884 14.1362C30.2004 5.30138 42.1845 -0.197073 52.8931 0.00540692C53.496 0.0189056 53.9797 0.504857 53.9932 1.10555C54.1124 6.74798 52.6636 12.7661 49.7975 18.5053C49.5208 19.0632 48.8481 19.2927 48.2902 19.0093C47.7345 18.7325 47.5073 18.0576 47.7863 17.5019C50.3037 12.4602 51.6625 7.21369 51.748 2.25293C41.9866 2.42391 31.0058 7.74013 24.0925 15.7268C24.0452 15.7808 23.9935 15.8326 23.935 15.8753L13.7664 27.2749L21.0441 34.5529C21.4828 34.9917 21.4828 35.7048 21.0441 36.1435C20.8237 36.364 20.5357 36.4743 20.2477 36.4743Z" fill="white"/>
<path d="M14.7157 25.6798C14.664 25.6798 14.61 25.6776 14.556 25.6686L3.78672 24.1252C3.36378 24.0645 3.01058 23.7698 2.87785 23.3626C2.74511 22.9576 2.8531 22.5099 3.15681 22.2107C8.49534 16.872 15.7889 13.8528 23.2421 13.8528C23.863 13.8528 24.3669 14.3567 24.3669 14.9777C24.3669 15.5986 23.863 16.1025 23.2421 16.1025C17.1207 16.1025 11.114 18.3141 6.45036 22.2332L14.8755 23.4413C15.4896 23.5313 15.9171 24.0982 15.8293 24.7147C15.7461 25.2749 15.2647 25.6798 14.7157 25.6798Z" fill="white"/>
<path d="M38.5445 21.0768C37.1025 21.0768 35.6627 20.5279 34.5671 19.4322C32.3759 17.2387 32.3759 13.6705 34.5671 11.477C36.7605 9.28348 40.3285 9.28348 42.522 11.477C44.7132 13.6705 44.7132 17.2387 42.522 19.4322C41.4241 20.5301 39.9843 21.0768 38.5445 21.0768ZM38.5445 12.0822C37.6806 12.0822 36.8145 12.4107 36.1576 13.0676C34.8438 14.3837 34.8438 16.5255 36.1576 17.8416C37.4737 19.1555 39.6154 19.1532 40.9315 17.8416C42.2453 16.5255 42.2453 14.3837 40.9315 13.0676C40.2723 12.4129 39.4084 12.0822 38.5445 12.0822Z" fill="white"/>
<path d="M1.12533 54C0.830623 54 0.544911 53.8853 0.32894 53.6715C0.0364799 53.3791 -0.0715055 52.9494 0.0477283 52.5534C0.416679 51.3228 3.72148 40.4474 6.12866 38.0401C8.83954 35.3291 13.2489 35.3269 15.9621 38.0401C18.673 40.7511 18.673 45.1629 15.9621 47.8739C13.5549 50.2811 2.67987 53.586 1.44929 53.955C1.3413 53.9843 1.23332 54 1.12533 54ZM11.0465 38.2538C9.84066 38.2538 8.63707 38.7128 7.71919 39.6284C6.42112 40.9288 4.26141 46.7355 2.8351 51.1653C7.2625 49.7389 13.0712 47.5791 14.3693 46.281C16.2028 44.4475 16.2028 41.462 14.3693 39.6284C13.4537 38.7128 12.2501 38.2538 11.0465 38.2538Z" fill="white"/>
</svg>
