<svg width="54" height="54" viewBox="0 0 54 54" fill="none" xmlns="http://www.w3.org/2000/svg">
<path d="M44.9416 7.71087C40.0045 2.7737 33.3083 1.27866e-05 26.3262 0C19.3441 -1.27865e-05 12.6479 2.77365 7.71079 7.71081C2.77367 12.648 1.27864e-05 19.3442 0 26.3264C-1.27864e-05 33.3086 2.77361 40.0049 7.71072 44.942C12.5141 49.746 18.9887 52.507 25.7806 52.6476C32.5725 52.7883 39.1558 50.2977 44.154 45.6967L52.1377 53.6805C52.3423 53.8851 52.6197 54 52.9091 54C53.1984 54 53.4759 53.8851 53.6805 53.6805C53.8851 53.4759 54 53.1984 54 52.9091C54 52.6197 53.8851 52.3422 53.6805 52.1377L45.6961 44.1545C50.2968 39.1564 52.7873 32.5732 52.6467 25.7813C52.506 18.9895 49.7453 12.515 44.9416 7.71156V7.71087ZM2.18179 26.3265C2.18137 22.3655 3.15547 18.4652 5.01821 14.9694C6.88095 11.4737 9.57512 8.49 12.8632 6.28131C16.1512 4.07261 19.9322 2.70681 23.8727 2.3043C27.8132 1.90179 31.7922 2.47494 35.4589 3.97323C39.1256 5.47152 42.3674 7.84892 44.8984 10.8958C47.4294 13.9427 49.172 17.5655 49.9724 21.4449C50.7728 25.3242 50.6066 29.3409 49.4882 33.1408C48.3699 36.9407 46.3339 40.4071 43.5597 43.2344C43.4289 43.3183 43.3177 43.4294 43.2338 43.5603C42.95 43.839 42.6606 44.1098 42.3656 44.3726V43.757C42.3691 43.3151 42.3215 42.8743 42.2235 42.4433C42.2053 42.3669 42.186 42.2908 42.1655 42.215C41.8936 41.2485 41.385 40.3649 40.6858 39.6443C39.9865 38.9237 39.1187 38.3888 38.1607 38.0879L31.6264 35.9692V33.2692C32.8064 32.5382 33.8223 31.5708 34.61 30.4278C35.3977 29.2849 35.9402 27.9912 36.2034 26.6283L36.5532 25.4254C37.3343 25.1313 37.9807 24.5613 38.3701 23.823C38.7596 23.0847 38.8651 22.2293 38.6668 21.4185C38.5661 20.996 38.3677 20.603 38.0874 20.2711C37.8071 19.9393 37.4528 19.6779 37.0531 19.5081V15.2695C37.0631 13.8546 36.7932 12.4518 36.2587 11.1417C35.7243 9.83162 34.9359 8.64025 33.939 7.6362C32.9421 6.63216 31.7564 5.83529 30.4502 5.2915C29.144 4.74771 27.7431 4.46776 26.3282 4.46776C24.9133 4.46776 23.5124 4.74771 22.2062 5.2915C20.9 5.83529 19.7143 6.63216 18.7174 7.6362C17.7205 8.64025 16.9321 9.83162 16.3977 11.1417C15.8632 12.4518 15.5933 13.8546 15.6033 15.2695V19.5063C15.2026 19.6759 14.8474 19.9373 14.5663 20.2696C14.2853 20.6018 14.0864 20.9955 13.9857 21.4188C13.7874 22.2296 13.8929 23.0849 14.2823 23.8232C14.6718 24.5615 15.3181 25.1315 16.0993 25.4256L16.4489 26.6284C16.7121 27.9914 17.2547 29.285 18.0424 30.428C18.8301 31.5709 19.846 32.5383 21.026 33.2693V35.9693L14.4916 38.088C13.5337 38.3889 12.666 38.9238 11.9668 39.6443C11.2676 40.3649 10.759 41.2483 10.487 42.2148C10.4661 42.2906 10.4467 42.3669 10.4288 42.4436C10.3309 42.8745 10.2833 43.3153 10.2869 43.7572V44.3727C9.93487 44.0591 9.59047 43.7347 9.25365 43.3995C7.00459 41.1627 5.22152 38.5019 4.00763 35.5714C2.79375 32.6408 2.17316 29.4986 2.18179 26.3265ZM29.7173 36.0791C28.651 36.5583 27.4952 36.8061 26.3262 36.8061C25.1571 36.8061 24.0013 36.5583 22.935 36.0791V34.1926C25.1274 34.979 27.5249 34.979 29.7173 34.1926V36.0791ZM15.8397 21.8728C15.871 21.7362 15.935 21.6093 16.0262 21.503C16.1175 21.3967 16.2332 21.3142 16.3634 21.2625C16.6992 21.4004 17.0632 21.4556 17.4247 21.4233C17.7863 21.3911 18.1347 21.2723 18.4408 21.0771C18.7468 20.8819 19.0014 20.616 19.1831 20.3018C19.3648 19.9875 19.4682 19.6342 19.4847 19.2716L19.6041 16.6521C20.1573 16.6521 20.9216 16.635 21.8249 16.5739C27.6299 21.483 35.7852 21.229 36.1356 21.2153C36.1386 21.2153 36.1415 21.2153 36.1445 21.2145C36.3067 21.25 36.4555 21.3306 36.5738 21.4472C36.692 21.5637 36.7749 21.7114 36.8127 21.873C36.8615 22.0727 36.8689 22.2802 36.8344 22.4828C36.7999 22.6854 36.7242 22.8788 36.612 23.051C36.4999 23.2232 36.3536 23.3706 36.1822 23.4841C36.0108 23.5975 35.818 23.6747 35.6157 23.7107C35.4249 23.744 35.2488 23.8347 35.1108 23.9705C34.9727 24.1063 34.8793 24.2808 34.8428 24.471L34.3577 26.1393C34.3491 26.169 34.3419 26.199 34.3363 26.2294C33.9852 28.0971 32.9925 29.7834 31.5299 30.9967C30.0673 32.21 28.2266 32.874 26.3263 32.874C24.4259 32.874 22.5853 32.21 21.1227 30.9967C19.6601 29.7834 18.6674 28.0971 18.3163 26.2294C18.3106 26.199 18.3034 26.169 18.2947 26.1393L17.8098 24.471C17.7733 24.2808 17.6798 24.1063 17.5418 23.9705C17.4038 23.8347 17.2277 23.744 17.0369 23.7107C16.6891 23.65 16.3739 23.4683 16.147 23.1978C15.9201 22.9273 15.7961 22.5853 15.7968 22.2322C15.7967 22.1111 15.811 21.9904 15.8397 21.8728ZM27.0796 15.783C27.8947 16.6139 29.8634 18.2904 33.1052 19.1282C30.8015 18.8418 27.5203 18.1116 24.6261 16.2673C25.4851 16.1364 26.3029 15.9749 27.0796 15.783ZM35.1441 17.5863C32.2489 17.1952 30.3059 16.0211 29.2161 15.1465C30.7028 14.6396 32.1012 13.9035 33.3605 12.9647C33.5614 12.8106 33.6929 12.5831 33.726 12.3321C33.7591 12.0811 33.6912 11.8272 33.5371 11.6263C33.383 11.4254 33.1555 11.2939 32.9045 11.2608C32.6535 11.2277 32.3996 11.2956 32.1987 11.4497C27.4157 15.1179 18.8271 14.7309 18.7414 14.7269C18.6158 14.7205 18.4901 14.7389 18.3716 14.7812C18.2532 14.8235 18.1442 14.8888 18.0511 14.9734C17.9579 15.0579 17.8824 15.1601 17.8288 15.2739C17.7753 15.3877 17.7448 15.511 17.739 15.6367L17.577 19.1845C17.5751 19.2537 17.5523 19.3207 17.5117 19.3768V15.2695C17.5026 14.1059 17.7238 12.9521 18.1628 11.8745C18.6017 10.7968 19.2496 9.81676 20.0691 8.99075C20.8887 8.16473 21.8636 7.50913 22.9377 7.06173C24.0119 6.61433 25.1639 6.38399 26.3275 6.38399C27.4911 6.38399 28.6432 6.61433 29.7173 7.06173C30.7914 7.50913 31.7664 8.16473 32.5859 8.99075C33.4054 9.81676 34.0533 10.7968 34.4923 11.8745C34.9312 12.9521 35.1525 14.1059 35.1433 15.2695L35.1441 17.5863ZM12.1958 45.909V43.757C12.1925 43.4613 12.2234 43.1661 12.2878 42.8775C12.2999 42.825 12.3132 42.7727 12.3277 42.7205C12.5164 42.0593 12.8668 41.4555 13.3474 40.9637C13.828 40.472 14.4236 40.1077 15.0803 39.9038L21.8885 37.6965C23.272 38.3663 24.7891 38.7143 26.3262 38.7143C27.8632 38.7143 29.3803 38.3663 30.7638 37.6965L37.5719 39.9038C38.2286 40.1077 38.8242 40.4719 39.3048 40.9637C39.7854 41.4555 40.1359 42.0593 40.3246 42.7205C40.3389 42.7725 40.3522 42.8248 40.3645 42.8774C40.4289 43.1661 40.4598 43.4612 40.4565 43.757V45.909C36.3419 48.8751 31.3983 50.4712 26.3262 50.4712C21.254 50.4712 16.3104 48.8751 12.1958 45.909Z" fill="white"/>
</svg>
