<svg width="70" height="54" viewBox="0 0 70 54" fill="none" xmlns="http://www.w3.org/2000/svg">
<path d="M57.9187 1.39749C57.6521 0.838366 57.1819 0.40051 56.6029 0.1723C56.0239 -0.0559101 55.3793 -0.0574765 54.7992 0.167919L49.7751 2.12761C49.4628 2.24907 49.179 2.43299 48.9412 2.66796C48.7035 2.90292 48.5169 3.18391 48.3931 3.49349C48.2693 3.80306 48.2109 4.13461 48.2215 4.46754C48.2321 4.80048 48.3115 5.1277 48.4548 5.42888L49.1507 6.88987L48.5947 7.12461C46.5928 7.53992 45.2063 7.48407 43.1463 6.91091L38.1267 5.51424C36.7081 5.11812 35.2038 5.14222 33.7987 5.58356L28.9546 7.10055C27.9732 7.4081 27.0654 7.91143 26.2868 8.5797C25.4364 8.26973 23.8134 7.87168 21.588 8.19028L22.2471 6.94784C22.5366 6.3998 22.6049 5.76282 22.4382 5.16652C22.2715 4.57021 21.8823 4.05939 21.3498 3.73798L16.737 0.958728C16.4503 0.785958 16.131 0.673316 15.7989 0.627747C15.4667 0.582178 15.1286 0.604646 14.8055 0.693765C14.4824 0.782884 14.1811 0.936767 13.9201 1.14593C13.6592 1.3551 13.4441 1.61512 13.2882 1.90997L0.283017 26.5606C-0.015292 27.1202 -0.0807349 27.7737 0.100745 28.3806C0.282225 28.9876 0.69615 29.4996 1.25361 29.8068L5.89523 32.3964C6.26106 32.602 6.67412 32.7102 7.09442 32.7106C7.33177 32.7105 7.56786 32.6764 7.79543 32.6094C8.1101 32.5183 8.403 32.3651 8.65657 32.1588C8.91013 31.9526 9.11915 31.6976 9.27106 31.4092L9.98732 30.0582L12.2872 31.9572L8.97572 36.5071C8.67829 36.9157 8.46504 37.3786 8.34819 37.8693C8.23135 38.3599 8.21322 38.8687 8.29485 39.3663C8.37648 39.8639 8.55626 40.3406 8.82386 40.7691C9.09147 41.1975 9.44164 41.5693 9.85427 41.863L10.2564 42.1498C10.9137 42.6196 11.7032 42.8719 12.5129 42.871C12.8315 42.8706 13.1488 42.8316 13.4578 42.7547C13.4662 42.8607 13.4781 42.9666 13.4954 43.0733C13.5757 43.5717 13.755 44.0493 14.0227 44.4783C14.2905 44.9073 14.6414 45.2792 15.0552 45.5723L15.4573 45.8599C16.1146 46.3297 16.9041 46.582 17.7138 46.581C18.0324 46.5806 18.3497 46.5416 18.6587 46.4648C18.6672 46.5708 18.679 46.6767 18.6963 46.7834C18.7766 47.2818 18.9559 47.7593 19.2236 48.1883C19.4914 48.6173 19.8423 48.9891 20.2561 49.2822L20.6582 49.5698C21.3155 50.0395 22.105 50.2918 22.9147 50.291C23.2333 50.2906 23.5506 50.2515 23.8596 50.1747C23.8681 50.2807 23.8799 50.3866 23.8972 50.4926C23.9775 50.9909 24.1568 51.4685 24.4245 51.8975C24.6923 52.3264 25.0432 52.6983 25.457 52.9914L25.8591 53.2789C26.6927 53.8719 27.7287 54.1132 28.7408 53.9503C29.7529 53.7874 30.6591 53.2334 31.2614 52.4093L32.5613 50.6233L34.6116 52.2452C35.248 52.7866 36.026 53.1375 36.8552 53.2572C37.6844 53.377 38.5307 53.2607 39.296 52.9218C40.0613 52.5829 40.7141 52.0353 41.1785 51.3426C41.643 50.65 41.9 49.8407 41.9198 49.0087C42.7806 49.3676 43.7334 49.4473 44.6425 49.2367C45.5516 49.026 46.3705 48.5357 46.9825 47.8356C47.6582 47.0657 48.0395 46.0842 48.0596 45.0631C48.9204 45.4219 49.8732 45.5016 50.7822 45.2909C51.6913 45.0803 52.5102 44.5899 53.1221 43.8899C53.7678 43.1539 54.1452 42.2236 54.1938 41.2486C55.0815 41.7099 56.1001 41.8597 57.0843 41.674C58.0685 41.4882 58.9607 40.9776 59.6161 40.2251L59.674 40.1588C60.0458 39.7331 60.3292 39.2386 60.508 38.7038C60.6867 38.169 60.7574 37.6044 60.7159 37.0424C60.6743 36.4804 60.5214 35.9321 60.2659 35.4289C60.0104 34.9258 59.6574 34.4777 59.227 34.1105L57.7793 32.8727C58.7936 32.2593 59.6873 31.4681 60.4171 30.5377L60.4392 30.5839C60.6362 31.0013 60.949 31.3543 61.3407 31.6017C61.7325 31.849 62.1871 31.9804 62.6513 31.9804C62.9888 31.98 63.3227 31.9109 63.6323 31.7774L68.5211 29.6807C68.8224 29.5519 69.0945 29.3642 69.3212 29.1288C69.548 28.8934 69.7248 28.6151 69.8411 28.3105C69.9574 28.0058 70.0108 27.6811 69.9982 27.3556C69.9856 27.03 69.9072 26.7103 69.7677 26.4155L57.9187 1.39749ZM7.65249 30.5624C7.61323 30.6357 7.55959 30.7006 7.49473 30.753C7.42986 30.8055 7.35509 30.8445 7.2748 30.8679C7.19452 30.8912 7.11034 30.8984 7.02723 30.8889C6.94411 30.8795 6.86375 30.8536 6.79085 30.8129L2.14923 28.2231C2.00833 28.1456 1.90361 28.0164 1.85754 27.8632C1.81147 27.7099 1.82772 27.5449 1.90281 27.4034L14.9084 2.75314C14.9477 2.67798 15.0023 2.61173 15.0687 2.55856C15.1351 2.50539 15.2118 2.46647 15.2941 2.44424C15.3496 2.42878 15.4069 2.42089 15.4645 2.42078C15.579 2.42082 15.6912 2.45224 15.7888 2.51159L20.4019 5.29085C20.5366 5.37183 20.6351 5.50074 20.6774 5.65131C20.7197 5.80189 20.7026 5.96282 20.6296 6.10133L7.65249 30.5624ZM11.3232 40.6746L10.921 40.3878C10.7038 40.2334 10.5195 40.038 10.3786 39.8127C10.2377 39.5874 10.143 39.3367 10.1 39.0749C10.057 38.8132 10.0665 38.5456 10.1279 38.2875C10.1894 38.0294 10.3016 37.7859 10.4581 37.571L15.5825 30.5295C15.9007 30.0944 16.3793 29.802 16.9138 29.7161C17.4483 29.6302 17.9953 29.7578 18.4354 30.0711L18.8378 30.3586C19.0549 30.513 19.2392 30.7084 19.3801 30.9337C19.521 31.159 19.6157 31.4097 19.6587 31.6714C19.7017 31.9331 19.6922 32.2007 19.6308 32.4588C19.5694 32.7169 19.4572 32.9604 19.3007 33.1753L17.9728 35L17.9711 35.0022L14.1765 40.2167C13.8582 40.6518 13.3795 40.9442 12.8449 41.0299C12.3103 41.1157 11.7633 40.988 11.3232 40.6746ZM16.5238 44.3839L16.1216 44.0963C15.9044 43.942 15.7201 43.7466 15.5792 43.5213C15.4383 43.296 15.3436 43.0452 15.3006 42.7835C15.2576 42.5217 15.2671 42.2541 15.3285 41.996C15.39 41.7379 15.5022 41.4944 15.6587 41.2795L19.4553 36.0625C19.7738 35.6282 20.2523 35.3366 20.7864 35.2512C21.3205 35.1658 21.867 35.2936 22.3067 35.6066L22.7089 35.8942C22.926 36.0485 23.1104 36.2439 23.2512 36.4692C23.3921 36.6945 23.4868 36.9453 23.5298 37.207C23.5728 37.4688 23.5633 37.7364 23.5019 37.9945C23.4404 38.2526 23.3282 38.4961 23.1717 38.7109L19.3771 43.9254C19.0589 44.3606 18.5802 44.6531 18.0456 44.739C17.511 44.8249 16.9639 44.6972 16.5238 44.3839ZM21.7244 48.0932L21.3222 47.8056C21.1051 47.6513 20.9207 47.4559 20.7799 47.2306C20.639 47.0053 20.5443 46.7546 20.5013 46.4929C20.4583 46.2311 20.4677 45.9635 20.5292 45.7055C20.5906 45.4474 20.7028 45.2039 20.8593 44.989L23.5662 41.2689C23.8845 40.8339 24.3632 40.5415 24.8977 40.4557C25.4323 40.3698 25.9793 40.4974 26.4195 40.8106L26.8218 41.0982C27.039 41.2525 27.2233 41.448 27.3641 41.6733C27.505 41.8985 27.5997 42.1493 27.6427 42.411C27.6857 42.6727 27.6762 42.9403 27.6148 43.1984C27.5533 43.4565 27.4411 43.7 27.2846 43.9148L24.5775 47.6349C24.2593 48.07 23.7806 48.3624 23.2461 48.4482C22.7116 48.5341 22.1645 48.4065 21.7244 48.0932ZM29.7781 51.3441C29.4599 51.7794 28.9811 52.0719 28.4465 52.1578C27.9118 52.2437 27.3646 52.116 26.9244 51.8025L26.5222 51.5149C26.305 51.3606 26.1207 51.1652 25.9798 50.9399C25.8389 50.7146 25.7442 50.4639 25.7012 50.2021C25.6582 49.9404 25.6677 49.6727 25.7291 49.4146C25.7906 49.1565 25.9027 48.913 26.0592 48.6981L27.6786 46.4733C27.9968 46.0382 28.4754 45.7458 29.0099 45.66C29.5444 45.5741 30.0914 45.7017 30.5316 46.015L30.9339 46.3026C31.1511 46.4569 31.3354 46.6523 31.4763 46.8776C31.6172 47.1029 31.7119 47.3536 31.7549 47.6154C31.7979 47.8771 31.7884 48.1447 31.727 48.4028C31.6655 48.6609 31.5533 48.9044 31.3968 49.1194L29.7781 51.3441ZM58.8912 37.1746C58.9159 37.498 58.8755 37.8231 58.7726 38.1309C58.6696 38.4387 58.506 38.7231 58.2913 38.9675L58.2334 39.0339C57.781 39.5539 57.1399 39.8751 56.4499 39.9272C55.7599 39.9793 55.0772 39.7582 54.5508 39.3121C53.965 38.8108 53.326 38.2642 52.6813 37.7128L52.6646 37.6977L47.7457 33.4906L47.6887 33.442C47.5046 33.287 47.2664 33.2106 47.0258 33.2293C46.7853 33.2481 46.5619 33.3605 46.4045 33.5421C46.247 33.7237 46.1682 33.9597 46.1853 34.1987C46.2023 34.4378 46.3138 34.6604 46.4954 34.8182L46.5727 34.8843C47.0081 35.2567 49.2746 37.195 51.4798 39.0813C51.7362 39.3017 51.9464 39.5702 52.0983 39.8713C52.2502 40.1725 52.3408 40.5004 52.365 40.8364C52.3891 41.1723 52.3464 41.5097 52.2392 41.8293C52.1319 42.1488 51.9623 42.4442 51.7401 42.6986C51.2875 43.215 50.6477 43.5327 49.9602 43.5824C49.2727 43.632 48.5933 43.4096 48.0703 42.9636L43.0934 38.7084C43.0026 38.6295 42.8969 38.5692 42.7825 38.5311C42.6681 38.4929 42.5473 38.4776 42.4269 38.4861C42.3065 38.4946 42.189 38.5266 42.0812 38.5804C41.9734 38.6342 41.8773 38.7086 41.7986 38.7994C41.7198 38.8902 41.66 38.9956 41.6225 39.1095C41.5849 39.2234 41.5705 39.3435 41.5799 39.463C41.5893 39.5825 41.6225 39.6989 41.6775 39.8056C41.7324 39.9123 41.8081 40.0071 41.9001 40.0846L45.3324 43.0196C45.5903 43.2397 45.802 43.5082 45.9552 43.8098C46.1083 44.1113 46.2 44.44 46.2249 44.7768C46.2497 45.1137 46.2074 45.4521 46.1001 45.7726C45.9929 46.0932 45.823 46.3895 45.6001 46.6446C45.1476 47.1611 44.5077 47.4789 43.8202 47.5286C43.1326 47.5782 42.4532 47.3558 41.9302 46.9098L38.4983 43.9748C38.4073 43.897 38.3017 43.8377 38.1877 43.8004C38.0736 43.7631 37.9533 43.7485 37.8335 43.7574C37.7138 43.7662 37.597 43.7985 37.4898 43.8522C37.3825 43.9059 37.287 43.9801 37.2087 44.0704C37.1303 44.1608 37.0707 44.2656 37.0331 44.3789C36.9956 44.4922 36.9808 44.6117 36.9898 44.7306C36.9987 44.8495 37.0312 44.9655 37.0852 45.072C37.1393 45.1785 37.214 45.2733 37.305 45.3512L39.1929 46.9653C39.4508 47.1854 39.6625 47.4539 39.8157 47.7555C39.9688 48.0571 40.0605 48.3857 40.0854 48.7226C40.1102 49.0594 40.0679 49.3978 39.9606 49.7184C39.8534 50.0389 39.6835 50.3352 39.4606 50.5903C39.0081 51.1068 38.3683 51.4245 37.6808 51.4742C36.9932 51.5239 36.3138 51.3015 35.7908 50.8555C35.7821 50.8479 35.773 50.8404 35.764 50.8332L33.4587 49.0105C33.6807 48.2491 33.6598 47.4381 33.3988 46.6889C33.1378 45.9398 32.6496 45.2894 32.0012 44.827L31.5989 44.5395C30.9413 44.0699 30.1516 43.818 29.3417 43.8193C29.5673 43.0565 29.5487 42.2429 29.2884 41.491C29.0281 40.7391 28.5389 40.0862 27.8886 39.6225L27.4863 39.335C26.8286 38.8654 26.0388 38.6135 25.2288 38.615C25.4545 37.8521 25.4359 37.0384 25.1756 36.2865C24.9152 35.5346 24.426 34.8817 23.7756 34.418L23.3735 34.1305C22.7507 33.6854 22.0083 33.435 21.2415 33.4114C21.5595 32.6164 21.6007 31.7386 21.3584 30.9177C21.1161 30.0968 20.6044 29.38 19.9045 28.8813L19.5022 28.5937C18.6686 28.0009 17.6327 27.7596 16.6206 27.9225C15.6085 28.0854 14.7025 28.6394 14.1001 29.4634L13.3613 30.4815L10.859 28.4154L20.4833 10.2742C22.4903 9.72285 24.0137 9.85483 24.9558 10.0725C24.6848 10.4714 24.4528 10.8951 24.2631 11.3379L22.7828 14.9084C22.4064 15.8165 22.0595 16.7484 21.7512 17.6797L20.2741 22.1433C20.2033 22.3572 20.215 22.5895 20.307 22.7952C20.3989 23.001 20.5645 23.1655 20.7716 23.2568L21.0897 23.3971C22.2134 23.9063 23.4488 24.1243 24.6804 24.0308C25.912 23.9372 27.0997 23.5352 28.1324 22.8622C29.0232 22.2805 29.7715 21.508 30.3224 20.6016C30.8733 19.6951 31.2128 18.6776 31.3161 17.6238C31.3237 17.5447 31.3313 17.4649 31.3366 17.3841C31.4014 17.0684 31.918 14.8249 33.5006 14.7146L35.6342 15.3104C36.4625 15.5422 37.2185 15.9781 37.832 16.5775L51.0456 29.5105C51.0609 29.5247 51.0761 29.5386 51.0913 29.5519L58.0343 35.4849C58.2827 35.6961 58.4865 35.9542 58.6336 36.2443C58.7807 36.5343 58.8683 36.8506 58.8912 37.1746ZM56.2989 31.6073L52.3062 28.1954L39.1159 15.2839C38.2822 14.4693 37.2548 13.8771 36.129 13.5622L33.8583 12.9282C33.7778 12.9056 33.6945 12.8941 33.6108 12.8941H33.607C32.192 12.9 31.0287 13.6648 30.2429 15.106C29.9055 15.7367 29.6641 16.4136 29.5267 17.1147C29.5216 17.145 29.518 17.1752 29.5158 17.2055C29.5102 17.2883 29.5033 17.3699 29.4957 17.4501C29.4181 18.2349 29.1645 18.9926 28.7536 19.6674C28.3427 20.3422 27.7848 20.9171 27.121 21.3498C26.4101 21.8046 25.6039 22.0917 24.764 22.1892C23.9242 22.2866 23.073 22.1918 22.2758 21.9119L23.4885 18.2474C23.7826 17.3581 24.1133 16.4677 24.4736 15.6007L25.9503 12.0387C26.2736 11.2805 26.759 10.6012 27.3729 10.0477C27.9867 9.49429 28.7143 9.07994 29.5053 8.83336L34.3493 7.31637C35.4156 6.98181 36.557 6.96351 37.6336 7.2637L42.6531 8.66037C45.0367 9.32374 46.714 9.38216 49.0619 8.88361C49.119 8.87152 49.1748 8.85404 49.2285 8.8314L49.9339 8.53384L59.5119 28.6395C58.7407 29.9071 57.6278 30.9352 56.2989 31.6073ZM68.1301 27.6635C68.1007 27.741 68.0559 27.8119 67.9983 27.8717C67.9407 27.9315 67.8714 27.9791 67.7948 28.0116L62.906 30.1085C62.7572 30.1734 62.5888 30.178 62.4366 30.1215C62.2844 30.065 62.1604 29.9517 62.091 29.8058L61.4557 28.4721C61.4264 28.3208 61.3591 28.1793 61.2598 28.061L50.1078 4.6523C50.0716 4.5761 50.0516 4.49332 50.0491 4.40912C50.0465 4.32492 50.0614 4.2411 50.0928 4.16286C50.1243 4.08463 50.1716 4.01366 50.2319 3.95436C50.2921 3.89507 50.364 3.84872 50.4431 3.8182L55.4678 1.85836C55.6156 1.80069 55.78 1.80083 55.9278 1.85874C56.0755 1.91665 56.1957 2.02804 56.264 2.17044L68.1115 27.1869C68.1469 27.261 68.1668 27.3414 68.17 27.4233C68.1732 27.5053 68.1596 27.587 68.1301 27.6635Z" fill="white"/>
</svg>
