<svg width="20" height="12" viewBox="0 0 20 12" fill="none" xmlns="http://www.w3.org/2000/svg">
<path d="M19.926 5.75658C19.7684 5.52085 15.9834 0 9.99996 0C4.8657 0 0.29062 5.48915 0.0981169 5.72315C-0.0327056 5.88258 -0.0327056 6.11658 0.0981169 6.27685C0.29062 6.51085 4.8657 12 9.99996 12C15.1342 12 19.7093 6.51085 19.9018 6.27685C20.0226 6.12943 20.0335 5.91601 19.926 5.75658ZM9.99996 11.1429C5.88407 11.1429 1.97065 7.10573 0.976491 6.00002C1.96901 4.89346 5.87825 0.857169 9.99996 0.857169C14.8159 0.857169 18.2151 4.88832 19.0451 5.97688C18.0867 7.04743 14.1509 11.1429 9.99996 11.1429Z" fill="#FB4A23"/>
<path d="M9.99996 2.57143C8.16161 2.57143 6.66659 4.10914 6.66659 5.99998C6.66659 7.89082 8.16161 9.42853 9.99996 9.42853C11.8383 9.42853 13.3333 7.89082 13.3333 5.99998C13.3333 4.10914 11.8383 2.57143 9.99996 2.57143ZM9.99996 8.57145C8.62162 8.57145 7.49992 7.41772 7.49992 6.00002C7.49992 4.58232 8.62162 3.42859 9.99996 3.42859C11.3783 3.42859 12.5 4.58232 12.5 6.00002C12.5 7.41772 11.3783 8.57145 9.99996 8.57145Z" fill="#FB4A23"/>
</svg>
