<svg width="18" height="11" viewBox="0 0 18 11" fill="none" xmlns="http://www.w3.org/2000/svg">
<path d="M17.6673 9.3624C17.6194 9.28668 17.323 8.67883 15.8968 7.42947C14.4038 6.12123 14.6044 6.33366 16.4027 4.07157C17.498 2.69391 17.9359 1.85259 17.7988 1.49293C17.6685 1.15009 16.8629 1.24053 16.8629 1.24053L14.1843 1.25526C14.1843 1.25526 13.986 1.23002 13.8378 1.3131C13.694 1.39513 13.6016 1.58442 13.6016 1.58442C13.6016 1.58442 13.177 2.65079 12.611 3.55731C11.4177 5.47026 10.9397 5.57121 10.7447 5.45238C10.2912 5.1758 10.4048 4.33974 10.4048 3.74661C10.4048 1.89255 10.7023 1.11959 9.82434 0.919781C9.53241 0.853528 9.31848 0.809359 8.57307 0.801997C7.61707 0.792532 6.80703 0.805152 6.34908 1.01653C6.04379 1.15745 5.80869 1.4719 5.95242 1.48977C6.12958 1.51186 6.5307 1.59178 6.74352 1.86521C7.01873 2.21751 7.0087 3.01046 7.0087 3.01046C7.0087 3.01046 7.16692 5.19262 6.63989 5.46395C6.27777 5.65009 5.78194 5.27044 4.71786 3.53418C4.17301 2.64553 3.76075 1.66224 3.76075 1.66224C3.76075 1.66224 3.68164 1.47926 3.54013 1.38145C3.36854 1.26262 3.12787 1.22476 3.12787 1.22476L0.580758 1.23948C0.580758 1.23948 0.19858 1.25 0.0581883 1.40669C-0.0666045 1.54656 0.0481603 1.83471 0.0481603 1.83471C0.0481603 1.83471 2.04262 6.23796 4.30003 8.45798C6.37137 10.4929 8.72237 10.3594 8.72237 10.3594H9.78757C9.78757 10.3594 10.1096 10.3257 10.2734 10.1585C10.4249 10.005 10.4193 9.71681 10.4193 9.71681C10.4193 9.71681 10.3982 8.36754 11.0622 8.16878C11.7163 7.97318 12.5564 9.47282 13.4467 10.0502C14.1197 10.4866 14.6311 10.3909 14.6311 10.3909L17.0122 10.3594C17.0122 10.3594 18.2579 10.2868 17.6673 9.3624Z" fill="#5F5F5F"/>
</svg>
